<?xml version="1.0" encoding="utf-8" ?>
<svg xmlns="http://www.w3.org/2000/svg" xmlns:xlink="http://www.w3.org/1999/xlink" width="1023" height="1023">
	<path fill="#B3B1B3" transform="scale(2.04609 2.04609)" d="M345.771 155.544C345.741 154.352 345.458 152.382 345.985 151.301C347.915 147.34 361.292 142.395 365.659 140.553C365.648 141.243 365.766 141.452 365.226 141.935C361.868 144.93 354.342 146.361 351.263 149.898C350.402 150.887 347.112 155.316 346.129 155.693L345.771 155.544Z"/>
	<path fill="#F3AC57" transform="scale(2.04609 2.04609)" d="M203.365 217.431C202.803 215.587 202.589 213.568 202.449 211.65C201.88 203.836 202.149 195.916 201.951 188.082C201.851 184.128 201.186 180.033 201.374 176.097C201.417 175.187 201.437 174.373 202.056 173.656C202.693 173.601 202.699 173.689 203.225 174.073C202.562 176.347 204.287 182.817 204.428 185.626C204.687 190.771 204.537 195.991 204.549 201.147C204.56 206.23 204.741 211.387 204.429 216.458C204.085 216.805 203.755 217.136 203.365 217.431Z"/>
	<path fill="#F3AC57" transform="scale(2.04609 2.04609)" d="M204.458 126.732C204.638 132.486 203.808 144.776 205.274 149.628C205.754 151.217 206.71 152.528 207.92 153.648C209.791 155.38 212.941 157.553 215.305 158.389C217.611 159.756 220.053 160.876 222.466 162.039C226.965 164.101 239.083 170.028 242.063 173.728L241.598 174.055C241.001 174.157 240.64 173.938 240.126 173.669C237.444 172.265 234.952 170.325 232.334 168.772C228.642 166.583 224.761 164.672 220.98 162.637C219.272 161.871 217.641 160.976 215.998 160.081C212.363 158.578 207.531 155.731 204.973 152.722C201.637 148.797 201.662 137.332 202.102 132.184C202.302 129.841 202.615 128.273 204.458 126.732Z"/>
	<path fill="#E7E1AC" transform="scale(2.04609 2.04609)" d="M204.458 126.732C213.108 121.293 222.379 116.765 231.146 111.481C235.316 108.968 239.908 104.975 244.015 102.93C244.591 106.874 244.597 110.885 244.724 114.863Q245.102 125.391 245.012 135.926C245.012 145.704 245.463 155.79 244.328 165.51C244.02 168.156 243.502 170.757 242.336 173.167L242.168 173.519C242.134 173.589 242.098 173.659 242.063 173.728C239.083 170.028 226.965 164.101 222.466 162.039C220.053 160.876 217.611 159.756 215.305 158.389C212.941 157.553 209.791 155.38 207.92 153.648C206.71 152.528 205.754 151.217 205.274 149.628C203.808 144.776 204.638 132.486 204.458 126.732Z"/>
	<path fill="#E7E1AC" transform="scale(2.04609 2.04609)" d="M203.225 174.073C207.353 175.732 211.3 177.999 215.243 180.058C222.968 184.09 239.359 191.678 242.962 199.946C246.444 207.938 244.636 224.504 244.284 233.374L243.742 250.489L243.005 250.637C240.906 249.977 235.631 244.342 233.587 242.462C226.169 235.638 218.572 229.286 210.423 223.359C208.063 221.642 204.913 219.529 204.429 216.458C204.741 211.387 204.56 206.23 204.549 201.147C204.537 195.991 204.687 190.771 204.428 185.626C204.287 182.817 202.562 176.347 203.225 174.073Z"/>
	<path fill="#818080" transform="scale(2.04609 2.04609)" d="M264.555 101.259C264.755 101.307 264.955 101.361 265.151 101.425C269.439 102.816 275.143 107.403 279.187 109.858C284.403 113.024 302.966 122.188 305.1 127.225C306.14 129.678 305.915 142.587 305.575 145.684C305.414 147.162 305.103 148.629 304.526 150.004C302.12 155.732 295.882 157.984 290.605 160.247Q286.469 162.034 282.556 164.267C279.072 166.268 268.832 173.817 265.537 173.46C265.016 172.849 264.776 172.064 264.585 171.297C263.534 167.075 263.53 162.237 263.448 157.892C263.256 147.766 264.106 137.647 264.214 127.525C264.291 120.338 263.581 113.141 263.812 105.951C263.859 104.512 263.782 102.511 264.555 101.259Z"/>
	<defs>
		<linearGradient id="gradient_0" gradientUnits="userSpaceOnUse" x1="198.12703" y1="306.65366" x2="245.06035" y2="252.7953">
			<stop offset="0" stop-color="#C0914D"/>
			<stop offset="1" stop-color="#DACF93"/>
		</linearGradient>
	</defs>
	<path fill="url(#gradient_0)" transform="scale(2.04609 2.04609)" d="M203.365 217.431C203.755 217.136 204.085 216.805 204.429 216.458C204.913 219.529 208.063 221.642 210.423 223.359C218.572 229.286 226.169 235.638 233.587 242.462C235.631 244.342 240.906 249.977 243.005 250.637L243.742 250.489C243.154 268.978 242.757 287.602 243.04 306.094Q243.123 314.33 243.466 322.56C243.692 327.645 244.136 332.806 243.851 337.89C235.031 327.628 220.769 326.194 210.501 318.004C207.769 315.825 205.536 313.231 204.725 309.736C202.976 302.207 204.171 289.565 204.286 281.545Q204.441 263.069 204.235 244.593C204.166 235.552 204.38 226.425 203.365 217.431Z"/>
	<defs>
		<linearGradient id="gradient_1" gradientUnits="userSpaceOnUse" x1="318.76755" y1="306.04156" x2="257.00357" y2="201.8376">
			<stop offset="0" stop-color="#5E5E5E"/>
			<stop offset="1" stop-color="#817F7F"/>
		</linearGradient>
	</defs>
	<path fill="url(#gradient_1)" transform="scale(2.04609 2.04609)" d="M305.893 172.361C306.613 172.065 306.939 171.954 307.74 172.061C308.379 172.634 308.45 173.019 308.476 173.873C308.59 177.524 307.567 181.426 307.339 185.107Q306.466 199.384 306.431 213.687L306.279 269.267C306.333 281.244 307.256 293.735 305.662 305.623C305.094 309.862 303.55 313.383 300.514 316.431C291.355 325.628 276.958 327.925 266.545 335.967C268.092 325.587 267.764 314.936 267.885 304.462Q268.336 270.448 266.735 236.468Q266.356 227.378 265.849 218.295C265.602 213.379 265.237 208.376 265.683 203.463C265.947 200.549 266.649 198.308 269.089 196.493Q269.678 196.059 270.284 195.65C280.785 186.313 293.045 178.085 305.893 172.361Z"/>
	<path fill="#B3B1B3" transform="scale(2.04609 2.04609)" d="M305.893 172.361C305.809 173.963 305.483 174.745 304.272 175.82C299.763 179.822 293.735 182.565 288.628 185.733C284.06 188.566 279.736 191.796 275.08 194.486C273.881 195.179 272.724 195.863 271.359 196.168C270.866 196.068 270.645 196.007 270.284 195.65C280.785 186.313 293.045 178.085 305.893 172.361Z"/>
	<defs>
		<linearGradient id="gradient_2" gradientUnits="userSpaceOnUse" x1="119.17603" y1="335.45312" x2="220.50639" y2="208.02887">
			<stop offset="0" stop-color="#A16E27"/>
			<stop offset="1" stop-color="#EFECB0"/>
		</linearGradient>
	</defs>
	<path fill="url(#gradient_2)" transform="scale(2.04609 2.04609)" d="M114.336 135.377C114.693 133.778 114.977 131.169 116.483 130.203C117.126 129.791 117.633 129.788 118.349 130.001C123.176 131.44 127.8 135.689 132.116 138.283C138.849 141.933 148.868 146.293 152.366 153.527C153.639 156.205 154.1 158.662 154.291 161.613C154.987 172.363 153.854 183.108 153.574 193.848Q153.127 220.173 153.138 246.502Q153.199 262.698 152.479 278.879C152.204 286.861 151.663 294.967 152.508 302.931C153.229 309.721 155.498 315.747 160.414 320.611C166.653 326.782 176.21 329.877 183.938 333.748C190.06 336.815 196.176 340.15 202.117 343.556C205.376 345.424 208.717 347.307 211.817 349.424C215.142 351.695 218.29 354.208 221.743 356.295C225.02 358.275 229.156 359.108 232.099 361.599C233.237 362.562 233.628 363.532 233.913 364.972C234.943 370.179 234.279 376.121 234.297 381.428C234.317 387.537 234.685 393.506 235.343 399.576C230.714 395.616 224.75 392.989 219.417 390.091Q208.526 384.103 197.57 378.235L167.492 362.12C161.283 358.744 155.188 355.149 148.886 351.946C140.083 347.471 126.123 342.237 119.335 335.44C116.596 332.698 115.492 329.692 115.077 325.896C114.521 320.81 115.013 315.629 115.298 310.539Q115.842 301.699 115.964 292.844C116.162 267.617 115.59 242.381 115.796 217.152C115.592 214.055 115.75 210.838 115.727 207.728L115.568 189.88C115.491 177.991 115.012 166.204 114.447 154.333C113.873 149.793 113.862 140.032 114.336 135.377Z"/>
	<path fill="#F3AC57" transform="scale(2.04609 2.04609)" d="M114.336 135.377C117.263 141.483 114.341 147.984 114.447 154.333C113.873 149.793 113.862 140.032 114.336 135.377Z"/>
	<path fill="#E7E1AC" transform="scale(2.04609 2.04609)" d="M132.116 138.283C138.849 141.933 148.868 146.293 152.366 153.527C151.805 154.672 152.59 155.607 152.73 156.795L152.364 156.755C151.789 156.116 151.647 155.262 151.419 154.453L151.054 154.946C148.516 153.948 145.295 150.51 143.051 148.772C142.484 148.333 141.77 148.101 141.232 147.661C140.541 147.095 140.077 146.278 139.399 145.686C137.897 144.373 132.238 140.589 131.638 139.358L132.116 138.283Z"/>
	<defs>
		<linearGradient id="gradient_3" gradientUnits="userSpaceOnUse" x1="384.33481" y1="330.97803" x2="280.32184" y2="212.40967">
			<stop offset="0" stop-color="#555"/>
			<stop offset="1" stop-color="#858484"/>
		</linearGradient>
	</defs>
	<path fill="url(#gradient_3)" transform="scale(2.04609 2.04609)" d="M365.659 140.553C371.823 136.05 378.863 132.246 385.814 129.117L385.762 129.451C384.935 134.886 385.142 140.804 385.018 146.317Q384.585 163.432 384.66 180.553Q384.293 229.447 384.911 278.338L385.353 305.751C385.464 313.065 386.058 321.082 384.592 328.282C383.803 332.156 381.782 334.264 378.739 336.554C370.367 342.858 360.2 346.249 351.027 351.161L291.222 383.666C286.664 386.093 282.065 388.491 277.679 391.221C274.831 392.994 272.216 395.182 269.293 396.824C268.34 397.359 267.197 398.01 266.098 398.066C265.554 397.8 265.341 397.671 265.149 397.073C264.129 393.893 264.723 365.17 265.804 361.557C267.058 358.689 269.319 357.861 271.998 356.583Q278.14 353.659 284.436 351.085C293.337 346.49 301.75 341.03 310.484 336.142C318.613 331.593 332.062 325.567 338.597 319.755C342.805 316.012 344.496 310.484 345.363 305.078C346.465 298.203 346.293 291.096 346.279 284.153Q346.27 272.284 346.126 260.415L345.719 197.098C345.609 183.299 344.947 169.322 345.771 155.544L346.129 155.693C347.112 155.316 350.402 150.887 351.263 149.898C354.342 146.361 361.868 144.93 365.226 141.935C365.766 141.452 365.648 141.243 365.659 140.553Z"/>
	<path fill="#B3B1B3" transform="scale(2.04609 2.04609)" d="M265.804 361.557C267.058 358.689 269.319 357.861 271.998 356.583C272.627 357.289 273.189 357.978 273.698 358.776C271.445 359.606 268.992 361.112 266.732 361.71C266.349 361.812 266.143 361.711 265.804 361.557Z"/>
	<path fill="#818080" transform="scale(2.04609 2.04609)" d="M271.998 356.583Q278.14 353.659 284.436 351.085C284.186 353.117 283.171 354.634 281.584 355.903C279.512 357.557 276.373 358.811 273.698 358.776C273.189 357.978 272.627 357.289 271.998 356.583Z"/>
</svg>
