<svg width="24" height="24" viewBox="0 0 24 24" fill="none" xmlns="http://www.w3.org/2000/svg">
<g clip-path="url(#clip0_900_3896)">
<path d="M17 24C15.6156 24 14.2622 23.5895 13.111 22.8203C11.9599 22.0511 11.0627 20.9579 10.5329 19.6788C10.0031 18.3997 9.86444 16.9922 10.1345 15.6344C10.4046 14.2765 11.0713 13.0292 12.0503 12.0503C13.0293 11.0713 14.2765 10.4046 15.6344 10.1345C16.9923 9.86441 18.3997 10.003 19.6788 10.5328C20.9579 11.0627 22.0512 11.9599 22.8203 13.111C23.5895 14.2622 24 15.6155 24 17C23.9979 18.8559 23.2597 20.6351 21.9474 21.9474C20.6352 23.2597 18.8559 23.9979 17 24ZM17 12C16.0111 12 15.0444 12.2932 14.2222 12.8427C13.3999 13.3921 12.7591 14.173 12.3806 15.0866C12.0022 16.0002 11.9032 17.0056 12.0961 17.9755C12.289 18.9454 12.7652 19.8363 13.4645 20.5355C14.1638 21.2348 15.0547 21.711 16.0246 21.9039C16.9945 22.0969 17.9998 21.9978 18.9135 21.6194C19.8271 21.241 20.608 20.6001 21.1574 19.7779C21.7068 18.9556 22 17.9889 22 17C21.9985 15.6744 21.4712 14.4036 20.5338 13.4662C19.5965 12.5289 18.3256 12.0016 17 12ZM18.707 18.707C18.8945 18.5195 18.9998 18.2652 18.9998 18C18.9998 17.7348 18.8945 17.4805 18.707 17.293L18 16.586V15C18 14.7348 17.8947 14.4804 17.7071 14.2929C17.5196 14.1054 17.2653 14 17 14C16.7348 14 16.4805 14.1054 16.2929 14.2929C16.1054 14.4804 16 14.7348 16 15V17C16.0001 17.2652 16.1055 17.5195 16.293 17.707L17.293 18.707C17.4806 18.8945 17.7349 18.9998 18 18.9998C18.2652 18.9998 18.5195 18.8945 18.707 18.707ZM2.00004 23C2.00256 21.1626 2.61472 19.378 3.74054 17.9258C4.86636 16.4737 6.4422 15.4362 8.22104 14.976C8.34921 14.947 8.47041 14.893 8.57771 14.8171C8.68502 14.7413 8.77634 14.645 8.84645 14.5339C8.91655 14.4227 8.96408 14.2988 8.98632 14.1693C9.00855 14.0398 9.00506 13.9072 8.97604 13.779C8.94702 13.6508 8.89303 13.5296 8.81717 13.4223C8.74131 13.315 8.64506 13.2237 8.5339 13.1536C8.42275 13.0835 8.29888 13.036 8.16936 13.0137C8.03984 12.9915 7.90721 12.995 7.77904 13.024C5.55008 13.5709 3.5703 14.8527 2.15901 16.6626C0.747718 18.4725 -0.0128247 20.705 3.84534e-05 23C3.84534e-05 23.2652 0.105395 23.5196 0.292932 23.7071C0.480468 23.8946 0.734822 24 1.00004 24C1.26525 24 1.51961 23.8946 1.70715 23.7071C1.89468 23.5196 2.00004 23.2652 2.00004 23ZM8.47404 11C7.38624 11 6.32287 10.6774 5.4184 10.0731C4.51393 9.46874 3.80898 8.60976 3.3927 7.60476C2.97642 6.59977 2.8675 5.4939 3.07972 4.42701C3.29194 3.36011 3.81576 2.3801 4.58495 1.61092C5.35414 0.841726 6.33415 0.317902 7.40104 0.105683C8.46794 -0.106535 9.5738 0.00238308 10.5788 0.418665C11.5838 0.834947 12.4428 1.5399 13.0471 2.44437C13.6515 3.34884 13.974 4.41221 13.974 5.5C13.9725 6.95821 13.3925 8.35623 12.3614 9.38734C11.3303 10.4184 9.93224 10.9984 8.47404 11ZM8.47404 2C7.7818 2 7.10511 2.20527 6.52954 2.58986C5.95397 2.97444 5.50537 3.52107 5.24046 4.16061C4.97555 4.80015 4.90624 5.50389 5.04129 6.18282C5.17634 6.86175 5.50968 7.48539 5.99917 7.97488C6.48865 8.46436 7.11229 8.7977 7.79122 8.93275C8.47016 9.0678 9.17389 8.99849 9.81343 8.73358C10.453 8.46868 10.9996 8.02007 11.3842 7.4445C11.7688 6.86893 11.974 6.19224 11.974 5.5C11.974 4.57175 11.6053 3.68151 10.9489 3.02513C10.2925 2.36875 9.4023 2 8.47404 2Z" fill="#3B3B3B"/>
</g>
<defs>
<clipPath id="clip0_900_3896">
<rect width="24" height="24" fill="white"/>
</clipPath>
</defs>
</svg>
