<svg width="24" height="24" viewBox="0 0 24 24" fill="none" xmlns="http://www.w3.org/2000/svg">
<path d="M24.0002 11.9834C23.9981 11.1694 23.7472 10.3754 23.2813 9.70788C22.8154 9.04034 22.1566 8.53113 21.3932 8.24843L21.3552 8.15743C20.3631 5.73086 18.4639 3.78681 16.0612 2.73843L15.7322 2.59443C15.4489 1.83334 14.9397 1.17709 14.2728 0.713697C13.6059 0.250307 12.8133 0.00195312 12.0012 0.00195312C11.1891 0.00195312 10.3964 0.250307 9.72954 0.713697C9.06265 1.17709 8.55342 1.83334 8.27018 2.59443L7.85218 2.78243C5.47072 3.86408 3.59638 5.82005 2.61718 8.24543C1.85252 8.52402 1.19165 9.03033 0.723628 9.69612C0.255607 10.3619 0.00293514 11.1552 -0.000334082 11.969C-0.00360331 12.7828 0.242687 13.5781 0.705344 14.2476C1.168 14.9171 1.82478 15.4287 2.58718 15.7134L2.71518 16.0134C3.71853 18.3423 5.56122 20.2086 7.87718 21.2414L8.27018 21.4174C8.55422 22.1774 9.06364 22.8325 9.73025 23.295C10.3969 23.7575 11.1888 24.0054 12.0002 24.0054C12.8115 24.0054 13.6035 23.7575 14.2701 23.295C14.9367 22.8325 15.4461 22.1774 15.7302 21.4174L16.0972 21.2544C18.5198 20.1712 20.4244 18.1859 21.4062 15.7204C22.167 15.4348 22.8227 14.9242 23.2861 14.2566C23.7495 13.589 23.9986 12.7961 24.0002 11.9834ZM12.0002 2.00043C12.3957 2.00043 12.7824 2.11773 13.1113 2.33749C13.4402 2.55725 13.6966 2.86961 13.8479 3.23506C13.9993 3.60051 14.0389 4.00265 13.9617 4.39061C13.8846 4.77857 13.6941 5.13494 13.4144 5.41464C13.1347 5.69435 12.7783 5.88483 12.3904 5.962C12.0024 6.03917 11.6003 5.99956 11.2348 5.84819C10.8694 5.69681 10.557 5.44047 10.3372 5.11157C10.1175 4.78267 10.0002 4.39599 10.0002 4.00043C10.0002 3.47 10.2109 2.96129 10.586 2.58622C10.961 2.21114 11.4697 2.00043 12.0002 2.00043ZM3.98818 9.98543L4.07018 10.0164L4.08018 9.99143C4.58128 10.0363 5.04451 10.2768 5.36946 10.6609C5.69441 11.045 5.85488 11.5416 5.81609 12.0432C5.7773 12.5449 5.54237 13.011 5.16223 13.3405C4.78209 13.6701 4.28738 13.8365 3.78535 13.8038C3.28332 13.771 2.81442 13.5417 2.4803 13.1656C2.14619 12.7895 1.97379 12.2968 2.00047 11.7944C2.02716 11.292 2.25078 10.8204 2.62286 10.4818C2.99495 10.1431 3.4855 9.9648 3.98818 9.98543ZM12.0002 22.0004C11.6046 22.0004 11.2179 21.8831 10.889 21.6634C10.5601 21.4436 10.3038 21.1313 10.1524 20.7658C10.001 20.4003 9.96144 19.9982 10.0386 19.6103C10.1158 19.2223 10.3063 18.8659 10.586 18.5862C10.8657 18.3065 11.222 18.116 11.61 18.0389C11.998 17.9617 12.4001 18.0013 12.7655 18.1527C13.131 18.304 13.4434 18.5604 13.6631 18.8893C13.8829 19.2182 14.0002 19.6049 14.0002 20.0004C14.0002 20.5309 13.7895 21.0396 13.4144 21.4146C13.0393 21.7897 12.5306 22.0004 12.0002 22.0004ZM15.8932 19.1144C15.6941 18.2304 15.2002 17.4405 14.4926 16.8745C13.7849 16.3086 12.9058 16.0002 11.9997 16.0002C11.0936 16.0002 10.2144 16.3086 9.5068 16.8745C8.79919 17.4405 8.30524 18.2304 8.10618 19.1144C6.74077 18.3693 5.61901 17.2465 4.87518 15.8804C5.75639 15.6813 6.54397 15.1891 7.10916 14.4843C7.67434 13.7795 7.98367 12.9038 7.98657 12.0004C7.98947 11.097 7.68578 10.2193 7.12514 9.51087C6.5645 8.80245 5.78009 8.3052 4.90018 8.10043C5.64675 6.75357 6.75792 5.64448 8.10618 4.90043C8.30607 5.78342 8.80025 6.57222 9.50757 7.13731C10.2149 7.70241 11.0933 8.01022 11.9987 8.01022C12.904 8.01022 13.7825 7.70241 14.4898 7.13731C15.1971 6.57222 15.6913 5.78342 15.8912 4.90043C17.2384 5.64365 18.3502 6.74989 19.1002 8.09343C18.2176 8.29502 17.4297 8.79072 16.866 9.49913C16.3022 10.2075 15.9961 11.0866 15.9979 11.9919C15.9996 12.8973 16.3091 13.7751 16.8756 14.4814C17.442 15.1876 18.2318 15.6802 19.1152 15.8784C18.3689 17.2402 17.2517 18.3623 15.8932 19.1144ZM20.0002 13.9834C19.6046 13.9834 19.2179 13.8661 18.889 13.6464C18.5601 13.4266 18.3038 13.1143 18.1524 12.7488C18.001 12.3833 17.9614 11.9812 18.0386 11.5932C18.1158 11.2053 18.3063 10.8489 18.586 10.5692C18.8657 10.2895 19.222 10.099 19.61 10.0219C19.998 9.94469 20.4001 9.9843 20.7655 10.1357C21.131 10.287 21.4434 10.5434 21.6631 10.8723C21.8829 11.2012 22.0002 11.5879 22.0002 11.9834C22.0002 12.5139 21.7895 13.0226 21.4144 13.3976C21.0393 13.7727 20.5306 13.9834 20.0002 13.9834Z" fill="#3B3B3B"/>
</svg>
