<svg width="26" height="26" viewBox="0 0 26 26" fill="none" xmlns="http://www.w3.org/2000/svg">
<g clip-path="url(#clip0_900_3902)">
<path d="M17 24C15.6156 24 14.2622 23.5895 13.111 22.8203C11.9599 22.0511 11.0627 20.9579 10.5329 19.6788C10.0031 18.3997 9.86444 16.9922 10.1345 15.6344C10.4046 14.2765 11.0713 13.0292 12.0503 12.0503C13.0293 11.0713 14.2765 10.4046 15.6344 10.1345C16.9923 9.86441 18.3997 10.003 19.6788 10.5328C20.9579 11.0627 22.0512 11.9599 22.8203 13.111C23.5895 14.2622 24 15.6155 24 17C23.9979 18.8559 23.2597 20.6351 21.9474 21.9474C20.6352 23.2597 18.8559 23.9979 17 24ZM17 12C16.0111 12 15.0444 12.2932 14.2222 12.8427C13.3999 13.3921 12.7591 14.173 12.3806 15.0866C12.0022 16.0002 11.9032 17.0056 12.0961 17.9755C12.289 18.9454 12.7652 19.8363 13.4645 20.5355C14.1638 21.2348 15.0547 21.711 16.0246 21.9039C16.9945 22.0969 17.9998 21.9978 18.9135 21.6194C19.8271 21.241 20.608 20.6001 21.1574 19.7779C21.7068 18.9556 22 17.9889 22 17C21.9985 15.6744 21.4712 14.4036 20.5338 13.4662C19.5965 12.5289 18.3256 12.0016 17 12ZM18.707 18.707C18.8945 18.5195 18.9998 18.2652 18.9998 18C18.9998 17.7348 18.8945 17.4805 18.707 17.293L18 16.586V15C18 14.7348 17.8947 14.4804 17.7071 14.2929C17.5196 14.1054 17.2653 14 17 14C16.7348 14 16.4805 14.1054 16.2929 14.2929C16.1054 14.4804 16 14.7348 16 15V17C16.0001 17.2652 16.1055 17.5195 16.293 17.707L17.293 18.707C17.4806 18.8945 17.7349 18.9998 18 18.9998C18.2652 18.9998 18.5195 18.8945 18.707 18.707ZM2.00004 23C2.00256 21.1626 2.61472 19.378 3.74054 17.9258C4.86636 16.4737 6.4422 15.4362 8.22104 14.976C8.34921 14.947 8.47041 14.893 8.57771 14.8171C8.68502 14.7413 8.77634 14.645 8.84645 14.5339C8.91655 14.4227 8.96408 14.2988 8.98632 14.1693C9.00855 14.0398 9.00506 13.9072 8.97604 13.779C8.94702 13.6508 8.89303 13.5296 8.81717 13.4223C8.74131 13.315 8.64506 13.2237 8.5339 13.1536C8.42275 13.0835 8.29888 13.036 8.16936 13.0137C8.03984 12.9915 7.90721 12.995 7.77904 13.024C5.55008 13.5709 3.5703 14.8527 2.15901 16.6626C0.747718 18.4725 -0.0128247 20.705 3.84534e-05 23C3.84534e-05 23.2652 0.105395 23.5196 0.292932 23.7071C0.480468 23.8946 0.734822 24 1.00004 24C1.26525 24 1.51961 23.8946 1.70715 23.7071C1.89468 23.5196 2.00004 23.2652 2.00004 23ZM8.47404 11C7.38624 11 6.32287 10.6774 5.4184 10.0731C4.51393 9.46874 3.80898 8.60976 3.3927 7.60476C2.97642 6.59977 2.8675 5.4939 3.07972 4.42701C3.29194 3.36011 3.81576 2.3801 4.58495 1.61092C5.35414 0.841726 6.33415 0.317902 7.40104 0.105683C8.46794 -0.106535 9.5738 0.00238308 10.5788 0.418665C11.5838 0.834947 12.4428 1.5399 13.0471 2.44437C13.6515 3.34884 13.974 4.41221 13.974 5.5C13.9725 6.95821 13.3925 8.35623 12.3614 9.38734C11.3303 10.4184 9.93224 10.9984 8.47404 11ZM8.47404 2C7.7818 2 7.10511 2.20527 6.52954 2.58986C5.95397 2.97444 5.50537 3.52107 5.24046 4.16061C4.97555 4.80015 4.90624 5.50389 5.04129 6.18282C5.17634 6.86175 5.50968 7.48539 5.99917 7.97488C6.48865 8.46436 7.11229 8.7977 7.79122 8.93275C8.47016 9.0678 9.17389 8.99849 9.81343 8.73358C10.453 8.46868 10.9996 8.02007 11.3842 7.4445C11.7688 6.86893 11.974 6.19224 11.974 5.5C11.974 4.57175 11.6053 3.68151 10.9489 3.02513C10.2925 2.36875 9.4023 2 8.47404 2Z" fill="#3B3B3B"/>
</g>
<mask id="path-2-outside-1_900_3902" maskUnits="userSpaceOnUse" x="19" y="5" width="5" height="5" fill="black">
<rect fill="white" x="19" y="5" width="5" height="5"/>
<path d="M23.395 9H22.925L21.805 7.495L20.685 9H20.23L21.575 7.215L20.28 5.5H20.745L21.82 6.93L22.885 5.5H23.345L22.05 7.21L23.395 9Z"/>
</mask>
<path d="M23.395 9H22.925L21.805 7.495L20.685 9H20.23L21.575 7.215L20.28 5.5H20.745L21.82 6.93L22.885 5.5H23.345L22.05 7.21L23.395 9Z" fill="#3B3B3B"/>
<path d="M23.395 9V9.5C23.5845 9.5 23.7577 9.39291 23.8423 9.22341C23.927 9.05391 23.9085 8.85111 23.7947 8.69964L23.395 9ZM22.925 9L22.5239 9.29851C22.6182 9.42529 22.767 9.5 22.925 9.5V9ZM21.805 7.495L22.2061 7.19649C22.1118 7.06971 21.963 6.995 21.805 6.995C21.647 6.995 21.4982 7.06971 21.4039 7.19649L21.805 7.495ZM20.685 9V9.5C20.843 9.5 20.9918 9.42529 21.0861 9.29851L20.685 9ZM20.23 9L19.8307 8.69911C19.7166 8.85052 19.6979 9.05344 19.7825 9.22311C19.8671 9.39277 20.0404 9.5 20.23 9.5V9ZM21.575 7.215L21.9743 7.51589C22.1087 7.3376 22.1085 7.09185 21.974 6.9137L21.575 7.215ZM20.28 5.5V5C20.0903 5 19.917 5.10733 19.8324 5.27712C19.7479 5.44691 19.7667 5.64993 19.881 5.8013L20.28 5.5ZM20.745 5.5L21.1447 5.19955C21.0502 5.07391 20.9022 5 20.745 5V5.5ZM21.82 6.93L21.4203 7.23045C21.515 7.3564 21.6635 7.43035 21.8211 7.43C21.9787 7.42965 22.1269 7.35503 22.221 7.22865L21.82 6.93ZM22.885 5.5V5C22.727 5 22.5783 5.07465 22.484 5.20135L22.885 5.5ZM23.345 5.5L23.7436 5.80186C23.8582 5.65055 23.8772 5.4474 23.7927 5.27744C23.7082 5.10747 23.5348 5 23.345 5V5.5ZM22.05 7.21L21.6514 6.90814C21.5166 7.08611 21.5162 7.33188 21.6503 7.51036L22.05 7.21ZM23.395 8.5H22.925V9.5H23.395V8.5ZM23.3261 8.70149L22.2061 7.19649L21.4039 7.79351L22.5239 9.29851L23.3261 8.70149ZM21.4039 7.19649L20.2839 8.70149L21.0861 9.29851L22.2061 7.79351L21.4039 7.19649ZM20.685 8.5H20.23V9.5H20.685V8.5ZM20.6293 9.30089L21.9743 7.51589L21.1757 6.91411L19.8307 8.69911L20.6293 9.30089ZM21.974 6.9137L20.679 5.1987L19.881 5.8013L21.176 7.5163L21.974 6.9137ZM20.28 6H20.745V5H20.28V6ZM20.3453 5.80045L21.4203 7.23045L22.2197 6.62955L21.1447 5.19955L20.3453 5.80045ZM22.221 7.22865L23.286 5.79865L22.484 5.20135L21.419 6.63135L22.221 7.22865ZM22.885 6H23.345V5H22.885V6ZM22.9464 5.19814L21.6514 6.90814L22.4486 7.51186L23.7436 5.80186L22.9464 5.19814ZM21.6503 7.51036L22.9953 9.30036L23.7947 8.69964L22.4497 6.90964L21.6503 7.51036Z" fill="#3B3B3B" mask="url(#path-2-outside-1_900_3902)"/>
<rect x="8" y="9" width="18" height="17" rx="8.5" fill="#ECECEC"/>
<g clip-path="url(#clip1_900_3902)">
<path d="M21.0833 12.3333H18.75V11.75C18.75 11.2859 18.5656 10.8408 18.2374 10.5126C17.9092 10.1844 17.4641 10 17 10C16.5359 10 16.0908 10.1844 15.7626 10.5126C15.4344 10.8408 15.25 11.2859 15.25 11.75V12.3333H12.9167C12.1434 12.3343 11.4021 12.6418 10.8553 13.1886C10.3085 13.7354 10.0009 14.4767 10 15.25V21.0833C10.0009 21.8566 10.3085 22.5979 10.8553 23.1447C11.4021 23.6915 12.1434 23.9991 12.9167 24H21.0833C21.8566 23.9991 22.5979 23.6915 23.1447 23.1447C23.6915 22.5979 23.9991 21.8566 24 21.0833V15.25C23.9991 14.4767 23.6915 13.7354 23.1447 13.1886C22.5979 12.6418 21.8566 12.3343 21.0833 12.3333ZM16.4167 11.75C16.4167 11.5953 16.4781 11.4469 16.5875 11.3375C16.6969 11.2281 16.8453 11.1667 17 11.1667C17.1547 11.1667 17.3031 11.2281 17.4125 11.3375C17.5219 11.4469 17.5833 11.5953 17.5833 11.75V12.9167C17.5833 13.0714 17.5219 13.2197 17.4125 13.3291C17.3031 13.4385 17.1547 13.5 17 13.5C16.8453 13.5 16.6969 13.4385 16.5875 13.3291C16.4781 13.2197 16.4167 13.0714 16.4167 12.9167V11.75ZM22.8333 21.0833C22.8333 21.5475 22.649 21.9926 22.3208 22.3208C21.9926 22.649 21.5475 22.8333 21.0833 22.8333H12.9167C12.4525 22.8333 12.0074 22.649 11.6792 22.3208C11.351 21.9926 11.1667 21.5475 11.1667 21.0833V15.25C11.1667 14.7859 11.351 14.3408 11.6792 14.0126C12.0074 13.6844 12.4525 13.5 12.9167 13.5H15.3573C15.4761 13.841 15.6981 14.1365 15.9924 14.3457C16.2868 14.5549 16.6389 14.6672 17 14.6672C17.3611 14.6672 17.7132 14.5549 18.0076 14.3457C18.3019 14.1365 18.5239 13.841 18.6427 13.5H21.0833C21.5475 13.5 21.9926 13.6844 22.3208 14.0126C22.649 14.3408 22.8333 14.7859 22.8333 15.25V21.0833ZM15.8333 15.8333H12.9167C12.762 15.8333 12.6136 15.8948 12.5042 16.0042C12.3948 16.1136 12.3333 16.262 12.3333 16.4167V21.0833C12.3333 21.238 12.3948 21.3864 12.5042 21.4958C12.6136 21.6052 12.762 21.6667 12.9167 21.6667H15.8333C15.988 21.6667 16.1364 21.6052 16.2458 21.4958C16.3552 21.3864 16.4167 21.238 16.4167 21.0833V16.4167C16.4167 16.262 16.3552 16.1136 16.2458 16.0042C16.1364 15.8948 15.988 15.8333 15.8333 15.8333ZM15.25 20.5H13.5V17H15.25V20.5ZM21.6667 18.75C21.6667 18.9047 21.6052 19.0531 21.4958 19.1625C21.3864 19.2719 21.238 19.3333 21.0833 19.3333H18.1667C18.012 19.3333 17.8636 19.2719 17.7542 19.1625C17.6448 19.0531 17.5833 18.9047 17.5833 18.75C17.5833 18.5953 17.6448 18.4469 17.7542 18.3375C17.8636 18.2281 18.012 18.1667 18.1667 18.1667H21.0833C21.238 18.1667 21.3864 18.2281 21.4958 18.3375C21.6052 18.4469 21.6667 18.5953 21.6667 18.75ZM21.6667 16.4167C21.6667 16.5714 21.6052 16.7197 21.4958 16.8291C21.3864 16.9385 21.238 17 21.0833 17H18.1667C18.012 17 17.8636 16.9385 17.7542 16.8291C17.6448 16.7197 17.5833 16.5714 17.5833 16.4167C17.5833 16.262 17.6448 16.1136 17.7542 16.0042C17.8636 15.8948 18.012 15.8333 18.1667 15.8333H21.0833C21.238 15.8333 21.3864 15.8948 21.4958 16.0042C21.6052 16.1136 21.6667 16.262 21.6667 16.4167ZM20.5 21.0833C20.5 21.238 20.4385 21.3864 20.3291 21.4958C20.2197 21.6052 20.0714 21.6667 19.9167 21.6667H18.1667C18.012 21.6667 17.8636 21.6052 17.7542 21.4958C17.6448 21.3864 17.5833 21.238 17.5833 21.0833C17.5833 20.9286 17.6448 20.7802 17.7542 20.6709C17.8636 20.5615 18.012 20.5 18.1667 20.5H19.9167C20.0714 20.5 20.2197 20.5615 20.3291 20.6709C20.4385 20.7802 20.5 20.9286 20.5 21.0833Z" fill="#3B3B3B"/>
</g>
<defs>
<clipPath id="clip0_900_3902">
<rect width="24" height="24" fill="white"/>
</clipPath>
<clipPath id="clip1_900_3902">
<rect width="14" height="14" fill="white" transform="translate(10 10)"/>
</clipPath>
</defs>
</svg>
