<svg width="50" height="50" viewBox="0 0 50 50" fill="none" xmlns="http://www.w3.org/2000/svg">
<g clip-path="url(#clip0_865_7442)">
<path d="M30.75 8.33333V8.83333H31.25H39.5827C42.212 8.83648 44.7327 9.88235 46.5918 11.7415C48.451 13.6007 49.4968 16.1213 49.5 18.7506V39.5827C49.4968 42.212 48.451 44.7327 46.5918 46.5918C44.7327 48.451 42.212 49.4968 39.5827 49.5H10.4173C7.78801 49.4968 5.26734 48.451 3.40818 46.5918C1.54908 44.7327 0.503227 42.2122 0.5 39.583V18.7503C0.503227 16.1212 1.54908 13.6006 3.40818 11.7415C5.26734 9.88235 7.78801 8.83648 10.4173 8.83333H18.75H19.25V8.33333V6.25C19.25 4.725 19.8558 3.26247 20.9341 2.18414C22.0125 1.1058 23.475 0.5 25 0.5C26.525 0.5 27.9875 1.1058 29.0659 2.18414C30.1442 3.26247 30.75 4.725 30.75 6.25V8.33333ZM19.6055 12.3355L19.4886 12H19.1333H10.4167C8.62646 12 6.90957 12.7112 5.6437 13.977C4.37783 15.2429 3.66667 16.9598 3.66667 18.75V39.5833C3.66667 41.3735 4.37783 43.0904 5.6437 44.3563C6.90957 45.6222 8.62646 46.3333 10.4167 46.3333H39.5833C41.3735 46.3333 43.0904 45.6222 44.3563 44.3563C45.6222 43.0904 46.3333 41.3735 46.3333 39.5833V18.75C46.3333 16.9598 45.6222 15.2429 44.3563 13.977C43.0904 12.7112 41.3735 12 39.5833 12H30.8667H30.5114L30.3945 12.3355C30.0044 13.4553 29.2755 14.4259 28.3088 15.1128C27.3422 15.7996 26.1858 16.1686 25 16.1686C23.8142 16.1686 22.6578 15.7996 21.6912 15.1128C20.7245 14.4259 19.9956 13.4553 19.6055 12.3355ZM18.75 38H19.25V37.5V25V24.5H18.75H12.5H12V25V37.5V38H12.5H18.75ZM23.1733 4.42331C22.6888 4.90778 22.4167 5.56486 22.4167 6.25V10.4167C22.4167 11.1018 22.6888 11.7589 23.1733 12.2434C23.6578 12.7278 24.3149 13 25 13C25.6851 13 26.3422 12.7278 26.8267 12.2434C27.3112 11.7589 27.5833 11.1018 27.5833 10.4167V6.25C27.5833 5.56486 27.3112 4.90778 26.8267 4.42331C26.3422 3.93884 25.6851 3.66667 25 3.66667C24.3149 3.66667 23.6578 3.93884 23.1733 4.42331ZM10.4167 21.3333H20.8333C21.2533 21.3333 21.656 21.5001 21.9529 21.7971C22.2499 22.094 22.4167 22.4967 22.4167 22.9167V39.5833C22.4167 40.0033 22.2499 40.406 21.9529 40.7029C21.656 40.9999 21.2533 41.1667 20.8333 41.1667H10.4167C9.99674 41.1667 9.59401 40.9999 9.29708 40.7029C9.00015 40.406 8.83333 40.0033 8.83333 39.5833V22.9167C8.83333 22.4967 9.00015 22.094 9.29708 21.7971C9.59401 21.5001 9.99674 21.3333 10.4167 21.3333ZM41.1667 31.25C41.1667 31.6699 40.9999 32.0727 40.7029 32.3696C40.406 32.6665 40.0033 32.8333 39.5833 32.8333H29.1667C28.7467 32.8333 28.344 32.6665 28.0471 32.3696C27.7501 32.0727 27.5833 31.6699 27.5833 31.25C27.5833 30.8301 27.7501 30.4273 28.0471 30.1304C28.344 29.8335 28.7467 29.6667 29.1667 29.6667H39.5833C40.0033 29.6667 40.406 29.8335 40.7029 30.1304C40.9999 30.4273 41.1667 30.8301 41.1667 31.25ZM41.1667 22.9167C41.1667 23.3366 40.9999 23.7393 40.7029 24.0363C40.406 24.3332 40.0033 24.5 39.5833 24.5H29.1667C28.7467 24.5 28.344 24.3332 28.0471 24.0363C27.7501 23.7393 27.5833 23.3366 27.5833 22.9167C27.5833 22.4967 27.7501 22.094 28.0471 21.7971C28.344 21.5001 28.7467 21.3333 29.1667 21.3333H39.5833C40.0033 21.3333 40.406 21.5001 40.7029 21.7971C40.9999 22.094 41.1667 22.4967 41.1667 22.9167ZM37 39.5833C37 40.0033 36.8332 40.406 36.5363 40.7029C36.2393 40.9999 35.8366 41.1667 35.4167 41.1667H29.1667C28.7467 41.1667 28.344 40.9999 28.0471 40.7029C27.7501 40.406 27.5833 40.0033 27.5833 39.5833C27.5833 39.1634 27.7501 38.7607 28.0471 38.4637C28.344 38.1668 28.7467 38 29.1667 38H35.4167C35.8366 38 36.2393 38.1668 36.5363 38.4637C36.8332 38.7607 37 39.1634 37 39.5833Z" fill="#ECB157" stroke="#ECECEC"/>
</g>
<defs>
<clipPath id="clip0_865_7442">
<rect width="50" height="50" fill="white"/>
</clipPath>
</defs>
</svg>
