<svg width="51" height="51" viewBox="0 0 51 51" fill="none" xmlns="http://www.w3.org/2000/svg">
<g clip-path="url(#clip0_865_7435)">
<path d="M40.3747 0.5C43.0591 0.503293 45.6326 1.57112 47.5307 3.46927C49.429 5.36749 50.4968 7.94111 50.5 10.6256V40.3744C50.4968 43.0589 49.429 45.6325 47.5307 47.5307C45.6325 49.429 43.0589 50.4968 40.3744 50.5H10.6256C7.94111 50.4968 5.36749 49.429 3.46927 47.5307C1.57112 45.6326 0.503293 43.0591 0.5 40.3747V10.6253C0.503293 7.94092 1.57112 5.36742 3.46927 3.46927C5.36742 1.57112 7.94092 0.503293 10.6253 0.5H40.3747ZM47.25 40.3769V40.375V10.625C47.25 8.80164 46.5257 7.05295 45.2364 5.76364C43.947 4.47433 42.1984 3.75 40.375 3.75H10.625C8.80164 3.75 7.05295 4.47433 5.76364 5.76364C4.47433 7.05295 3.75 8.80164 3.75 10.625V30.9953V32.2021L4.6035 31.3489L11.9666 23.9879L11.9667 23.9878C12.907 23.0473 14.0232 22.3012 15.2518 21.7922C16.4804 21.2832 17.7973 21.0213 19.1271 21.0213C20.457 21.0213 21.7738 21.2832 23.0024 21.7922C24.231 22.3012 25.3473 23.0473 26.2875 23.9878L26.2876 23.9878L45.7589 43.4592L46.2541 43.9543L46.5617 43.3253C47.0107 42.4071 47.246 41.3991 47.25 40.3769ZM3.89645 36.6512L3.75 36.7976V37.0047V40.375C3.75 42.1984 4.47433 43.947 5.76364 45.2364C7.05295 46.5257 8.80164 47.25 10.625 47.25L40.375 47.25L40.3769 47.25C41.3991 47.246 42.4071 47.0107 43.3253 46.5617L43.9543 46.2541L43.4592 45.759L23.9879 26.2856C23.9879 26.2855 23.9879 26.2855 23.9878 26.2855C23.3494 25.6466 22.5913 25.1399 21.757 24.7941C20.9226 24.4483 20.0282 24.2704 19.125 24.2704C18.2218 24.2704 17.3274 24.4483 16.493 24.7941C15.6587 25.1399 14.9006 25.6466 14.2622 26.2854C14.2622 26.2855 14.2621 26.2855 14.2621 26.2856L3.89645 36.6512Z" fill="#ECB157" stroke="#ECECEC"/>
<path d="M37.8546 20.6433C36.7137 21.4056 35.3724 21.8125 34.0003 21.8125C32.1604 21.8125 30.3958 21.0816 29.0948 19.7806C27.7937 18.4795 27.0628 16.7149 27.0628 14.875C27.0628 13.5029 27.4697 12.1616 28.232 11.0207C28.9943 9.87987 30.0778 8.99067 31.3454 8.46559C32.6131 7.94051 34.008 7.80312 35.3537 8.07081C36.6995 8.33849 37.9356 8.99922 38.9059 9.96945C39.8761 10.9397 40.5368 12.1758 40.8045 13.5216C41.0722 14.8673 40.9348 16.2622 40.4097 17.5299C39.8846 18.7975 38.9954 19.881 37.8546 20.6433ZM36.049 11.809C35.4426 11.4038 34.7296 11.1875 34.0003 11.1875C33.0223 11.1875 32.0844 11.576 31.3929 12.2675C30.7013 12.9591 30.3128 13.897 30.3128 14.875C30.3128 15.6043 30.5291 16.3173 30.9343 16.9237C31.3395 17.5301 31.9154 18.0027 32.5892 18.2818C33.263 18.5609 34.0044 18.6339 34.7197 18.4916C35.435 18.3494 36.0921 17.9982 36.6078 17.4825C37.1235 16.9668 37.4747 16.3097 37.617 15.5944C37.7592 14.8791 37.6862 14.1377 37.4071 13.4639C37.128 12.7901 36.6554 12.2141 36.049 11.809Z" fill="#ECB157" stroke="#ECECEC"/>
</g>
<defs>
<clipPath id="clip0_865_7435">
<rect width="51" height="51" fill="white"/>
</clipPath>
</defs>
</svg>
