<svg width="15" height="15" viewBox="0 0 15 15" fill="none" xmlns="http://www.w3.org/2000/svg">
<g clip-path="url(#clip0_865_5946)">
<rect width="15" height="15" transform="matrix(0 -1 1 0 0 15)" fill="#ECB157"/>
<path d="M5.73196 0.732813L3.30759 3.15719C3.19374 3.27506 3.13074 3.43294 3.13216 3.59681C3.13359 3.76069 3.19932 3.91744 3.3152 4.03332C3.43108 4.1492 3.58784 4.21494 3.75171 4.21636C3.91558 4.21778 4.07346 4.15479 4.19134 4.04094L6.61571 1.61656C6.68917 1.54453 6.771 1.48158 6.85946 1.42906C6.85946 1.43844 6.85446 1.44594 6.85446 1.45531L6.87446 11.2578C6.87446 11.4236 6.94031 11.5825 7.05752 11.6998C7.17473 11.817 7.3337 11.8828 7.49946 11.8828C7.66522 11.8828 7.82419 11.817 7.9414 11.6998C8.05861 11.5825 8.12446 11.4236 8.12446 11.2578L8.10446 1.45906C8.10446 1.44156 8.09571 1.42719 8.09446 1.41031C8.20018 1.46575 8.29742 1.53605 8.38321 1.61906L10.8076 4.04344C10.8652 4.10313 10.9342 4.15074 11.0105 4.1835C11.0867 4.21626 11.1687 4.2335 11.2517 4.23422C11.3347 4.23494 11.417 4.21913 11.4938 4.1877C11.5706 4.15628 11.6404 4.10987 11.6991 4.05118C11.7578 3.9925 11.8042 3.92272 11.8356 3.84591C11.867 3.7691 11.8828 3.6868 11.8821 3.60381C11.8814 3.52082 11.8642 3.43881 11.8314 3.36256C11.7986 3.28631 11.751 3.21734 11.6913 3.15969L9.26696 0.735312C8.79814 0.266635 8.16237 0.0033474 7.49946 0.0033474C6.83655 0.0033474 6.20078 0.266635 5.73196 0.735312V0.732813Z" fill="white"/>
<path d="M13.75 10.625V11.875C13.75 12.3723 13.5525 12.8492 13.2008 13.2008C12.8492 13.5525 12.3723 13.75 11.875 13.75H3.125C2.62772 13.75 2.15081 13.5525 1.79917 13.2008C1.44754 12.8492 1.25 12.3723 1.25 11.875V10.625C1.25 10.4592 1.18415 10.3003 1.06694 10.1831C0.949732 10.0658 0.79076 10 0.625 10C0.45924 10 0.300269 10.0658 0.183058 10.1831C0.065848 10.3003 0 10.4592 0 10.625L0 11.875C0.000992411 12.7035 0.330551 13.4978 0.916387 14.0836C1.50222 14.6694 2.2965 14.999 3.125 15L11.875 15C12.7035 14.999 13.4978 14.6694 14.0836 14.0836C14.6694 13.4978 14.999 12.7035 15 11.875V10.625C15 10.4592 14.9342 10.3003 14.8169 10.1831C14.6997 10.0658 14.5408 10 14.375 10C14.2092 10 14.0503 10.0658 13.9331 10.1831C13.8158 10.3003 13.75 10.4592 13.75 10.625Z" fill="white"/>
</g>
<defs>
<clipPath id="clip0_865_5946">
<rect width="15" height="15" fill="white" transform="matrix(0 -1 1 0 0 15)"/>
</clipPath>
</defs>
</svg>
