<svg width="31" height="30" viewBox="0 0 31 30" fill="none" xmlns="http://www.w3.org/2000/svg">
<g clip-path="url(#clip0_1358_904)">
<path d="M30.1006 29.28C29.8602 29.8203 29.4495 30.0214 28.8589 29.9978C27.969 29.9633 27.0761 29.99 26.1846 29.9884C25.8155 29.9884 25.6255 29.829 25.6341 29.5352C25.6419 29.258 25.8328 29.1056 26.1831 29.1056C27.0941 29.1041 28.0052 29.0994 28.9162 29.1096C29.1377 29.1119 29.2359 29.064 29.2249 28.8182C29.2052 28.4074 29.2139 27.9951 29.2225 27.5844C29.2264 27.4061 29.1589 27.3299 28.9822 27.344C28.9138 27.3495 28.8447 27.344 28.7764 27.344C19.6259 27.344 10.4754 27.344 1.32575 27.344C1.03097 27.344 0.883583 27.4927 0.883583 27.7901C0.883583 28.1428 0.890651 28.4954 0.880441 28.848C0.874944 29.0334 0.92992 29.1284 1.12862 29.1064C1.20637 29.0978 1.28491 29.1049 1.36345 29.1049C8.71148 29.1049 16.0587 29.1049 23.4068 29.1049C23.5143 29.1049 23.6251 29.0915 23.7295 29.1119C23.9699 29.1598 24.112 29.3098 24.1018 29.5635C24.0916 29.8133 23.9518 29.9586 23.7005 29.9853C23.6227 29.9939 23.5442 29.9892 23.4657 29.9892C16.0202 29.9892 8.57404 29.9892 1.12862 29.9892C0.534088 29.9892 0.175169 29.7669 0.0424395 29.2918C-0.00075649 29.1355 0.00552656 28.9635 0.0039558 28.7986C-0.000756493 28.3674 0.00159965 27.9362 0.00238503 27.505C0.0039558 26.872 0.377797 26.4864 1.01396 26.4589C1.06029 26.4566 1.10663 26.4518 1.16475 26.4471V17.4844C0.438272 17.4027 0.0196634 17.0155 0.00317041 16.4249C-0.0172495 15.7023 0.484609 15.056 1.16475 14.9413C1.33753 14.9122 1.51503 14.902 1.69096 14.9012C2.89573 14.8981 4.10129 14.8997 5.30607 14.8997C5.41131 14.8997 5.51576 14.8997 5.65085 14.8997V14.5219C5.65085 11.9553 5.65085 9.38865 5.65085 6.82123C5.65085 6.7427 5.64928 6.66416 5.65085 6.58641C5.66027 6.27539 5.83463 6.07119 6.09459 6.06648C6.34984 6.06177 6.54304 6.26361 6.54461 6.57384C6.5509 7.61211 6.54775 8.65039 6.54775 9.68945C6.54775 10.1677 6.54775 10.646 6.54775 11.1455H14.5728V0.88375H14.2696C11.8397 0.88375 9.41047 0.88375 6.9805 0.88375C6.58938 0.88375 6.54697 0.925376 6.54697 1.32356C6.54618 2.23461 6.54697 3.14565 6.54697 4.05669C6.54697 4.14465 6.55011 4.2334 6.54304 4.32136C6.52105 4.61196 6.36712 4.77296 6.10951 4.77767C5.84876 4.78238 5.6587 4.60096 5.65242 4.31116C5.64299 3.86035 5.64928 3.40954 5.64928 2.95951C5.64928 2.35241 5.64378 1.74453 5.65085 1.13743C5.6587 0.477708 6.12679 0.00176711 6.77944 0.00176711C12.2952 -0.000589036 17.8109 -0.000589036 23.3266 0.00176711C24.0029 0.00176711 24.4513 0.486347 24.4521 1.20026C24.4537 3.93339 24.4529 6.6673 24.4529 9.40043C24.4529 11.1149 24.4529 12.8294 24.4529 14.5439C24.4529 14.6499 24.4529 14.7552 24.4529 14.884C24.5825 14.8902 24.6869 14.8989 24.7914 14.8989C25.9475 14.8997 27.1043 14.924 28.2596 14.8918C29.1565 14.8659 29.7966 15.1761 30.1021 16.0534V16.6416C29.8869 17.1623 29.5233 17.4828 28.9382 17.4781V26.4605C29.5092 26.4039 29.8689 26.6851 30.1021 27.165V29.2816L30.1006 29.28ZM23.5363 11.1495C23.5434 11.0466 23.5544 10.961 23.5544 10.8754C23.5552 7.6828 23.5552 4.49022 23.5544 1.29765C23.5544 0.930088 23.5041 0.884536 23.124 0.884536C20.6854 0.884536 18.2468 0.884536 15.8082 0.884536C15.7139 0.884536 15.6197 0.884536 15.5254 0.884536V11.1503H23.5356L23.5363 11.1495ZM5.62729 26.4503V17.4812H2.09071V26.4503H5.62729ZM6.56111 26.4401H10.1016V17.482H6.56111V26.4401ZM20.0013 17.4726V26.4393H23.5332V17.4726H20.0013ZM28.0185 17.4828H24.4757V26.4377H28.0185V17.4828ZM14.572 26.4448V17.4875H11.0472V26.4448H14.572ZM19.0565 17.4804H15.5286V26.4361H19.0565V17.4804ZM6.56032 14.8792H14.5798V12.0754H6.56032V14.8792ZM15.5223 14.8737H23.5348V12.0684H15.5223V14.8737ZM15.0393 16.582C19.5937 16.582 24.1489 16.582 28.7034 16.582C28.7819 16.582 28.8604 16.5867 28.9382 16.5804C29.1793 16.5615 29.2578 16.4359 29.1785 16.201C29.0796 15.9089 28.9036 15.8091 28.4772 15.8091C19.5246 15.8091 10.572 15.8091 1.61949 15.8091C1.54095 15.8091 1.46241 15.806 1.38466 15.8154C1.11527 15.8461 0.863163 16.1068 0.892222 16.3487C0.929135 16.6597 1.18438 16.5662 1.37523 16.5827C1.40429 16.5851 1.43414 16.5827 1.46319 16.5827C5.98856 16.5827 10.5139 16.5827 15.0393 16.5827V16.582Z" fill="#898989"/>
</g>
<defs>
<clipPath id="clip0_1358_904">
<rect width="30.1005" height="30" fill="white"/>
</clipPath>
</defs>
</svg>
