<svg width="32" height="30" viewBox="0 0 32 30" fill="none" xmlns="http://www.w3.org/2000/svg">
<g clip-path="url(#clip0_1358_241)">
<path d="M31.1528 29.0579V30.0005H0.333313V29.0684H2.2926C2.2926 28.9406 2.2926 28.8347 2.2926 28.7296C2.2926 26.1871 2.31622 23.6446 2.27656 21.1029C2.26644 20.4376 2.07321 19.773 1.94664 19.1109C1.4564 16.5587 0.957718 14.0081 0.463257 11.4567C0.415161 11.2102 0.35272 10.962 0.338376 10.713C0.306312 10.1212 0.741708 9.69274 1.35852 9.68708C1.84286 9.68304 2.32719 9.68466 2.81153 9.68708C3.4199 9.6887 3.80636 9.98701 3.91943 10.5545C4.07553 11.3347 4.22066 12.1172 4.3717 12.899C4.83747 15.3121 5.30662 17.7253 5.76564 20.1393C5.80699 20.3567 5.94452 20.3422 6.10653 20.3422C8.64381 20.3406 11.1819 20.3745 13.7184 20.3244C14.7478 20.3042 15.681 20.9259 15.4777 22.2776C15.1613 24.373 13.4416 25.8387 11.2241 25.9074C10.7128 25.9236 10.2014 25.9648 9.64202 25.9979C9.76183 26.5113 9.87406 26.9883 9.9846 27.4669C10.0842 27.8986 10.1964 28.3287 10.274 28.7644C10.3154 28.9996 10.4124 29.0659 10.6622 29.0643C12.5674 29.053 14.4744 29.0255 16.3788 29.0765C17.0227 29.0934 17.4226 28.9414 17.6614 28.3658C17.7686 28.1071 17.9584 27.88 18.1086 27.6374C18.3947 27.175 18.8064 26.8702 19.338 26.698C19.4224 26.6706 19.5287 26.5461 19.5287 26.466C19.5388 24.0852 19.5388 21.7044 19.5287 19.3236C19.5287 19.2354 19.4351 19.1029 19.3498 19.0665C17.7584 18.3817 16.7754 17.2322 16.5484 15.57C16.4506 14.8554 16.4919 14.1197 16.5198 13.3953C16.5366 12.9556 17.0024 12.6015 17.4817 12.5966C18.1533 12.5902 18.8258 12.595 19.5363 12.595C19.5363 12.4665 19.5363 12.3598 19.5363 12.2522C19.5363 11.0816 19.5346 9.91183 19.5363 8.74122C19.5388 7.62963 20.4198 6.78159 21.5656 6.78321C22.6921 6.78482 23.5722 7.63529 23.5772 8.72909C23.5789 9.03953 23.5772 9.34916 23.5772 9.67334H22.5672C22.5672 9.39524 22.5689 9.11714 22.5672 8.83904C22.5621 8.20362 22.136 7.74928 21.5513 7.75251C20.9623 7.75575 20.5472 8.20362 20.5455 8.84713C20.543 10.0072 20.5455 11.1673 20.5455 12.3274V12.578H21.5437V11.6443H22.5596V12.5934H22.9157C25.1163 12.5934 27.3169 12.5934 29.5167 12.5934C30.2727 12.5934 30.6676 12.9628 30.649 13.6945C30.6296 14.4584 30.6727 15.2394 30.5199 15.9807C30.2229 17.4197 29.2872 18.4222 27.889 19.0139C27.6814 19.102 27.6156 19.2007 27.6165 19.4125C27.6249 21.723 27.624 24.0335 27.6165 26.3431C27.6165 26.5614 27.6468 26.6819 27.9033 26.7449C28.3919 26.8654 28.7522 27.1758 29.0146 27.5857C29.2888 28.0158 29.5487 28.454 29.8348 28.876C29.8947 28.9641 30.0381 29.0417 30.1487 29.0498C30.471 29.0724 30.7967 29.0579 31.1511 29.0579H31.1528ZM17.577 13.5659C17.5551 13.5845 17.5264 13.5983 17.5264 13.612C17.5213 14.0453 17.5129 14.4795 17.5163 14.9128C17.5306 16.912 19.0621 18.389 21.1454 18.4011C22.7663 18.4108 24.3881 18.4278 26.0082 18.389C26.5313 18.3761 27.0857 18.2742 27.5633 18.0745C29.2281 17.3801 30.098 15.3954 29.5951 13.5659H17.5779H17.577ZM20.5683 19.3769V26.6156H26.5921V19.3769H20.5683ZM14.0863 23.2719H3.32793V29.0449H9.29437C9.06149 28.0457 8.83198 27.0602 8.60078 26.0675C8.01856 26.0966 7.47854 26.1233 6.92585 26.1507C6.90645 25.8096 6.88873 25.5121 6.87101 25.1936C7.09461 25.1725 7.30218 25.1475 7.50976 25.1345C8.8632 25.0505 10.2192 24.9906 11.5709 24.8791C12.6839 24.7869 13.4973 24.2154 14.0871 23.2719H14.0863ZM4.76828 20.3276C4.1405 17.0939 3.51694 13.8788 2.89506 10.675H1.36696C1.98883 13.9095 2.60564 17.1198 3.22161 20.3276H4.76744H4.76828ZM28.7412 29.0473C28.4915 28.6585 28.2873 28.3092 28.0502 27.9818C27.8586 27.7167 27.5591 27.6059 27.2275 27.6059C24.7973 27.6035 22.3681 27.597 19.938 27.6156C19.6975 27.6172 19.3844 27.7151 19.2325 27.8784C18.9195 28.2147 18.6934 28.6253 18.4023 29.0482H28.7412V29.0473ZM3.31611 22.263H14.4069C14.5993 21.5443 14.4111 21.3083 13.661 21.3083C10.3356 21.3083 7.01108 21.3083 3.68569 21.3083H3.31611V22.263Z" fill="#898989"/>
<path d="M18.5187 8.70813V9.68633C18.1862 9.68633 17.8546 9.68633 17.5222 9.68633C17.1855 9.68633 16.8488 9.68956 16.5113 9.68633C15.9215 9.67986 15.4954 9.27807 15.4954 8.71379C15.4928 6.13167 15.4928 3.54954 15.4954 0.966611C15.4954 0.420922 15.924 0.00377209 16.4885 0.00377209C21.2146 0.0013468 25.9415 0.0013468 30.6676 0.00377209C31.2354 0.00377209 31.6624 0.417688 31.6632 0.964186C31.6666 3.55682 31.6666 6.14864 31.6632 8.74127C31.6632 9.25382 31.2371 9.68148 30.7131 9.68309C28.7134 9.69037 26.7127 9.68552 24.7129 9.68471C24.6834 9.68471 24.6539 9.67339 24.6083 9.66369V8.73238H30.6347V0.985205H16.5299V8.70732H18.5178L18.5187 8.70813Z" fill="#898989"/>
<path d="M7.40852 14.53H6.41791V13.568H7.40852C7.40852 13.2398 7.40683 12.9318 7.40852 12.6237C7.41274 12.0239 7.82957 11.6237 8.45819 11.6229C9.78379 11.6205 11.1094 11.6205 12.435 11.6229C13.0467 11.6245 13.4652 12.0239 13.4712 12.606C13.4745 12.9075 13.4712 13.2099 13.4712 13.5591C13.6458 13.5591 13.8087 13.5591 13.9715 13.5591C14.1344 13.5591 14.2837 13.5591 14.4609 13.5591V14.5171H13.4712C13.4712 14.8154 13.4712 15.0935 13.4712 15.3708C13.4712 16.0313 13.1682 16.3716 12.4603 16.4848C12.4603 16.8017 12.4645 17.1227 12.4595 17.4436C12.451 17.9869 12.0266 18.3951 11.4579 18.3992C10.7744 18.4048 10.0901 18.4056 9.40662 18.3992C8.85646 18.3935 8.42951 17.9844 8.41938 17.4606C8.41347 17.1388 8.41854 16.8171 8.41854 16.5002C7.65406 16.3304 7.40767 16.0321 7.40767 15.2972C7.40767 15.0555 7.40767 14.8146 7.40767 14.5292L7.40852 14.53ZM12.4485 12.6116H8.44385V15.4807H12.4485V12.6116ZM9.45049 16.4791V17.4113H11.4359V16.4791H9.45049Z" fill="#898989"/>
<path d="M25.9137 5.98835C25.7069 6.17833 25.4749 6.39337 25.2631 6.5882C23.9316 5.3125 22.5891 4.0271 21.2382 2.73361C21.4449 2.5404 21.6761 2.32455 21.8854 2.12891C23.2237 3.41107 24.5644 4.69567 25.9145 5.98835H25.9137Z" fill="#898989"/>
<path d="M27.2874 5.14428C26.4504 4.34798 25.6108 3.54925 24.7645 2.74325C24.9822 2.5371 25.2117 2.31963 25.4226 2.11914C26.2613 2.9211 27.0984 3.72145 27.9422 4.52826C27.7295 4.72875 27.4992 4.94541 27.2874 5.14428Z" fill="#898989"/>
<path d="M20.6982 6.12351C20.1961 5.64168 19.7067 5.17199 19.2123 4.69744C19.4376 4.49937 19.6738 4.29242 19.8797 4.11133C20.3404 4.55273 20.8416 5.03213 21.3496 5.518C21.1606 5.69423 20.9286 5.91008 20.699 6.12351H20.6982Z" fill="#898989"/>
</g>
<defs>
<clipPath id="clip0_1358_241">
<rect width="31.3333" height="30" fill="white" transform="translate(0.333313)"/>
</clipPath>
</defs>
</svg>
