<svg width="42" height="30" viewBox="0 0 42 30" fill="none" xmlns="http://www.w3.org/2000/svg">
<g clip-path="url(#clip0_1358_3048)">
<path d="M41.3553 24.6344C41.0519 25.1772 40.5559 25.3163 39.948 25.306C38.742 25.2844 37.536 25.2998 36.2729 25.2998C36.2729 25.4636 36.2729 25.6006 36.2729 25.7366C36.2729 26.777 36.2761 27.8184 36.2718 28.8587C36.2686 29.5767 35.8931 29.9692 35.1508 29.9856C34.2922 30.0052 33.4326 30.0052 32.5741 29.9856C31.8339 29.9681 31.4638 29.5746 31.4584 28.8536C31.4541 28.3396 31.4563 27.8256 31.4541 27.3116C31.4541 27.2858 31.4466 27.2611 31.4305 27.1704C31.3013 27.1704 31.1615 27.1704 31.0216 27.1704C30.0146 27.1704 29.0087 27.1766 28.0017 27.1674C27.4616 27.1622 27.1152 26.7193 27.3691 26.332C27.4777 26.1671 27.7456 26.0085 27.9447 26.0034C29.1787 25.9735 30.4138 25.9725 31.6478 25.9951C32.3137 26.0075 32.6666 26.3773 32.6871 27.0304C32.7053 27.6062 32.6914 28.182 32.6914 28.7815H35.0023V23.7362H6.47589V28.7805H8.78361C8.78361 28.3396 8.78039 27.8966 8.78469 27.4537C8.78792 27.223 8.78576 26.9891 8.82127 26.7625C8.88152 26.3804 9.19136 26.0858 9.58943 26.0209C9.7734 25.991 9.96275 25.9848 10.15 25.9848C14.9816 25.9828 19.8122 25.9828 24.6439 25.9848C24.7784 25.9848 24.9129 25.9828 25.0452 25.9992C25.3938 26.0415 25.6283 26.2835 25.623 26.5833C25.6176 26.8748 25.3658 27.1282 25.0312 27.1643C24.8989 27.1787 24.7634 27.1704 24.6289 27.1704C19.9317 27.1704 15.2345 27.1704 10.5373 27.1704H10.0187C10.0187 27.7421 10.0209 28.2778 10.0187 28.8124C10.0155 29.5994 9.64107 29.9764 8.82342 29.9887C8.01868 30.0001 7.21286 29.999 6.40811 29.9887C5.58508 29.9784 5.20638 29.6045 5.20423 28.8217C5.20208 27.6669 5.20423 26.5133 5.20423 25.3184C5.03532 25.3111 4.89438 25.2998 4.75237 25.2998C3.63885 25.2988 2.52426 25.2833 1.41075 25.3039C0.586638 25.3194 0.0960463 24.9084 0.110032 24.0658C0.146612 21.882 0.121867 19.6972 0.122943 17.5124C0.122943 16.7409 0.49519 16.3855 1.30101 16.3835C1.76901 16.3824 2.23701 16.3835 2.76203 16.3835C2.76203 16.0672 2.75987 15.7757 2.76203 15.4852C2.76848 14.6488 3.09985 14.3264 3.97452 14.3027C4.02724 14.3017 4.07995 14.2945 4.16602 14.2873V11.3763C3.46349 11.3763 2.76741 11.3392 2.07778 11.3866C1.29025 11.4401 0.742638 10.9251 1.0116 10.0753C1.44948 8.69084 1.83571 7.29199 2.25099 5.90138C2.44895 5.23698 2.81905 4.96813 3.53234 4.96401C4.39088 4.95886 5.25049 4.95783 6.10903 4.96401C6.79004 4.96916 7.17735 5.2545 7.36455 5.88387C7.78521 7.30023 8.20265 8.71762 8.61578 10.136C8.83848 10.8993 8.46408 11.3711 7.6389 11.3763C6.91807 11.3804 6.19617 11.3763 5.45383 11.3763V14.2749C5.513 14.2842 5.57432 14.3006 5.63672 14.3027C6.52431 14.3305 6.87504 14.6704 6.87719 15.51C6.87719 15.7891 6.87719 16.0683 6.87719 16.3587C6.96756 16.3701 7.01813 16.3824 7.06869 16.3824C7.44417 16.3845 7.81857 16.3824 8.25644 16.3824C8.25644 15.9137 8.25537 15.4574 8.25644 15.0011C8.25859 14.2749 8.62008 13.902 9.37964 13.8938C10.6007 13.8804 11.8218 13.8855 13.0429 13.8927C13.5088 13.8958 13.7885 14.1307 13.7842 14.4819C13.7799 14.8301 13.4862 15.0639 13.0333 15.066C12.0004 15.0691 10.9665 15.067 9.93263 15.067C9.78954 15.067 9.64538 15.067 9.48292 15.067V19.2883H10.5211C10.5405 18.9411 10.5394 18.5961 10.5814 18.2561C10.6868 17.4187 11.3754 16.7749 12.2522 16.7667C14.4125 16.745 16.5739 16.7419 18.7342 16.7656C19.7337 16.777 20.419 17.5165 20.4642 18.5415C20.475 18.7835 20.4653 19.0266 20.4653 19.2934H21.2679C21.2679 19.072 21.2647 18.8464 21.2679 18.6218C21.2873 17.4486 22.0038 16.7574 23.2281 16.7533C25.2281 16.7471 27.2271 16.746 29.2271 16.7533C30.4342 16.7574 31.1669 17.4733 31.183 18.6362C31.1862 18.8505 31.183 19.0658 31.183 19.2986H31.9888V15.066H31.5316C26.432 15.066 21.3324 15.066 16.2318 15.066C16.1113 15.066 15.9886 15.0742 15.8692 15.0619C15.5368 15.0279 15.285 14.7704 15.285 14.4758C15.285 14.1739 15.5206 13.9391 15.8714 13.902C15.9908 13.8896 16.1124 13.8907 16.2329 13.8896C21.44 13.8896 26.6472 13.8896 31.8543 13.8896C32.0017 13.8896 32.1502 13.8927 32.2965 13.9072C32.8377 13.9607 33.2024 14.3305 33.2132 14.8517C33.2239 15.3493 33.2153 15.8478 33.2153 16.3629H34.5956C34.5956 16.0507 34.5935 15.7582 34.5956 15.4667C34.601 14.6818 34.9711 14.3254 35.7995 14.3027C35.8641 14.3006 35.9297 14.2945 36.0168 14.2893V11.3763C35.5478 11.3763 35.0712 11.3763 34.5946 11.3763C34.3396 11.3763 34.0846 11.3783 33.8296 11.3763C33.0066 11.368 32.6365 10.9004 32.8581 10.1329C33.1206 9.21927 33.395 8.30971 33.6629 7.39706C33.8113 6.89232 33.9566 6.38552 34.1083 5.88181C34.2976 5.2545 34.6828 4.96916 35.3659 4.96401C36.2385 4.95783 37.111 4.9568 37.9824 4.96401C38.6366 4.96916 39.0088 5.2308 39.1906 5.83237C39.636 7.30847 40.075 8.78663 40.5021 10.2669C40.6732 10.8612 40.2783 11.3587 39.6339 11.3701C38.87 11.3845 38.1062 11.3732 37.3079 11.3732V14.2811C37.4155 14.2883 37.5187 14.2996 37.622 14.3027C38.3009 14.3223 38.6861 14.6818 38.7076 15.3338C38.7183 15.6655 38.7097 15.9972 38.7097 16.3835C39.1809 16.3835 39.6199 16.4102 40.0545 16.3773C40.6656 16.3299 41.0895 16.5534 41.3499 17.0777V24.6344H41.3553ZM34.332 22.5392C34.332 22.154 34.332 21.8089 34.332 21.4648C34.332 20.6243 34.2019 20.4976 33.3369 20.4976C24.9398 20.4976 16.5416 20.4976 8.14455 20.4976C7.99716 20.4976 7.84869 20.4945 7.70237 20.51C7.39898 20.5439 7.18704 20.7119 7.1709 20.9992C7.144 21.5071 7.16337 22.017 7.16337 22.5382H34.331L34.332 22.5392ZM3.46241 6.12697C3.05896 7.5011 2.6652 8.83814 2.26605 10.1989H7.3581C6.97079 8.88346 6.59424 7.59071 6.20262 6.30312C6.18003 6.22792 6.03909 6.13624 5.95195 6.13521C5.13537 6.12285 4.31879 6.128 3.46241 6.128V6.12697ZM35.3154 6.14242C34.9195 7.48771 34.5225 8.83608 34.1223 10.1927H39.2121C38.8087 8.82372 38.4149 7.48668 38.019 6.14242H35.3143H35.3154ZM1.36126 20.6191V24.0843H5.19024C5.19562 23.9638 5.20961 23.8639 5.20423 23.764C5.17948 23.2778 5.3258 22.8853 5.7981 22.6309C5.87772 22.5876 5.91752 22.4218 5.91967 22.3116C5.93151 21.7533 5.92505 21.1939 5.92505 20.6191H1.36126ZM40.1169 24.0843V20.6305H35.5531C35.5531 21.1836 35.5607 21.709 35.5499 22.2353C35.5456 22.4527 35.6155 22.5753 35.7974 22.7349C36.0222 22.9317 36.147 23.251 36.2611 23.5374C36.3224 23.6919 36.2718 23.8866 36.2718 24.0843H40.1169ZM8.24246 17.567H1.35695V19.3408H8.24138V17.567H8.24246ZM40.1342 17.566H33.2497V19.3542H40.1342V17.566ZM29.935 19.3058C29.935 19.0122 29.9436 18.7568 29.9329 18.5023C29.9167 18.1387 29.7069 17.9275 29.3282 17.9265C27.2507 17.9203 25.1743 17.9224 23.0968 17.9265C22.7902 17.9265 22.5654 18.0882 22.5245 18.3695C22.4793 18.6774 22.5137 18.9957 22.5137 19.3079H29.9339L29.935 19.3058ZM11.8218 19.2976H19.2216C19.2216 19.0998 19.2216 18.9226 19.2216 18.7454C19.2205 18.0656 19.0678 17.9224 18.3437 17.9224C16.575 17.9224 14.8063 17.9461 13.0376 17.9142C11.7627 17.8915 11.7175 18.0841 11.8208 19.2976H11.8218ZM5.61843 15.4894H4.01002V16.2877H5.61843V15.4894ZM35.8608 16.2908H37.4725V15.4997H35.8608V16.2908Z" fill="#898989"/>
<path d="M29.0679 1.20689H12.4362V9.33421C12.5621 9.34245 12.6783 9.35481 12.7945 9.35584C13.7875 9.3579 14.7805 9.34554 15.7735 9.36409C16.0446 9.36924 16.177 9.27344 16.3028 9.06227C17.4142 7.20401 18.5309 5.34781 19.6606 3.49985C19.7682 3.32371 19.9414 3.13108 20.1297 3.06413C20.4858 2.9364 20.73 3.14344 20.9075 3.44319C21.383 4.24666 21.8693 5.04394 22.3524 5.84328C22.4255 5.9638 22.5052 6.0802 22.6074 6.23883C22.6945 6.11007 22.7677 6.01324 22.8301 5.91023C23.5746 4.67826 24.3158 3.44422 25.0614 2.21328C25.4584 1.55609 25.9522 1.55506 26.3503 2.21328C27.2239 3.65539 28.0921 5.10059 29.012 6.62614C29.0378 6.45823 29.0614 6.37068 29.0636 6.28312C29.0722 5.88551 29.0539 5.48584 29.084 5.08926C29.1099 4.75551 29.3874 4.5186 29.6951 4.54126C30.0491 4.56701 30.2503 4.77097 30.303 5.10368C30.3148 5.17888 30.3094 5.25716 30.3094 5.33442C30.3094 6.67043 30.3116 8.00644 30.3094 9.34245C30.3084 10.15 29.92 10.5209 29.083 10.5209C23.5143 10.5209 17.9467 10.5209 12.3781 10.5209C11.5647 10.5209 11.1688 10.1459 11.1678 9.36615C11.1656 6.65601 11.1656 3.94484 11.1678 1.23471C11.1678 0.35708 11.5368 0.00170278 12.4663 0.00170278C16.1296 -0.00138745 19.7918 0.000672704 23.4551 0.000672704C25.2938 0.000672704 27.1314 -0.000357374 28.97 0.000672704C29.9544 0.00170278 30.3094 0.341629 30.3105 1.27179C30.3105 1.65704 30.3191 2.04332 30.3073 2.42754C30.2955 2.82412 30.0265 3.09812 29.6779 3.09297C29.3412 3.08885 29.0873 2.83648 29.0711 2.44917C29.0539 2.04229 29.0668 1.63438 29.0668 1.20586L29.0679 1.20689ZM25.68 3.53178C24.5181 5.46009 23.3594 7.38324 22.1867 9.33112H29.027C29.0518 9.00047 26.3051 4.26108 25.68 3.53178ZM17.539 9.35687C18.2889 9.35687 18.9624 9.28992 19.6154 9.37336C20.4922 9.48563 20.9193 9.13335 21.354 8.42774C21.7994 7.7036 21.8715 7.16075 21.3389 6.48296C20.9387 5.97307 20.6547 5.38077 20.2932 4.78333C19.3647 6.32432 18.4718 7.80661 17.539 9.35687Z" fill="#898989"/>
<path d="M15.639 5.74811C14.49 5.74811 13.5679 4.86224 13.5787 3.77036C13.5895 2.70629 14.5265 1.81836 15.639 1.81836C16.7794 1.81836 17.6885 2.70423 17.6831 3.81053C17.6777 4.89932 16.7815 5.74914 15.639 5.74811ZM16.4706 3.80641C16.4803 3.38202 16.1177 3.02046 15.6659 3.00501C15.2119 2.98956 14.8375 3.3233 14.8192 3.75903C14.8009 4.20505 15.1753 4.58515 15.6358 4.58721C16.0715 4.58927 16.4609 4.22462 16.4706 3.80641Z" fill="#898989"/>
<path d="M36.3277 17.8535C36.6655 17.8546 36.9313 18.1193 36.9259 18.4489C36.9205 18.7682 36.6752 19.0041 36.3417 19.0113C35.9921 19.0185 35.7231 18.7724 35.7199 18.4427C35.7177 18.1172 35.991 17.8515 36.3277 17.8535Z" fill="#898989"/>
</g>
<defs>
<clipPath id="clip0_1358_3048">
<rect width="41.2442" height="30" fill="white" transform="translate(0.111084)"/>
</clipPath>
</defs>
</svg>
