<svg width="30" height="22" viewBox="0 0 30 22" fill="none" xmlns="http://www.w3.org/2000/svg">
<g clip-path="url(#clip0_1358_137)">
<path d="M0 3.22487C0.267117 2.83667 0.518089 2.72366 0.818228 2.86529C1.10442 2.99958 1.17487 3.24248 1.17414 3.54115C1.169 6.25488 1.1712 8.96788 1.1712 11.6816C1.1712 11.7976 1.1712 11.9135 1.1712 12.0713C1.30036 12.0713 1.41337 12.0713 1.52565 12.0713C3.95612 12.0713 6.38659 12.0713 8.81705 12.0713C9.42174 12.0713 9.60813 12.254 9.60813 12.8484C9.60813 15.4939 9.60813 18.1386 9.60813 20.7841C9.60813 20.9008 9.61327 21.0219 9.58612 21.1334C9.5186 21.4072 9.24341 21.5877 8.96456 21.5598C8.66442 21.5297 8.4428 21.289 8.44059 20.9588C8.43472 20.0415 8.43839 19.1234 8.43766 18.2062C8.43766 17.5039 8.43766 16.8023 8.43766 16.0788H1.1712V16.3848C1.1712 17.8488 1.1712 19.3128 1.1712 20.7775C1.1712 21.2178 1.05232 21.4387 0.765392 21.5356C0.478462 21.6324 0.254642 21.5209 0 21.1554V3.22487ZM8.42372 13.2638H1.19542V14.8679H8.42372V13.2638Z" fill="#898989"/>
<path d="M12.0885 4.90167C11.9425 4.49806 11.7913 4.09371 11.6526 3.68423C11.6159 3.57562 11.6115 3.45381 11.6071 3.33786C11.5843 2.80216 11.7942 2.57907 12.3233 2.57907C14.1102 2.5776 15.8971 2.5776 17.684 2.57907C18.1977 2.57907 18.4127 2.80363 18.3936 3.31658C18.3723 3.88677 18.1705 4.39679 17.8374 4.898H20.3897C20.3897 4.59859 20.3985 4.29845 20.3823 3.99978C20.3794 3.93814 20.2965 3.85888 20.2304 3.82513C19.5472 3.47362 19.2126 2.91664 19.2177 2.15051C19.2207 1.65223 19.2148 1.15469 19.2192 0.656417C19.2229 0.235929 19.4511 0.00623762 19.8716 0.00330227C20.6135 -0.00110076 21.3561 -0.00110076 22.098 0.00330227C22.4283 0.00550378 22.7071 0.186762 22.713 0.470757C22.7277 1.19065 22.7409 1.91568 22.6704 2.63044C22.6169 3.17495 22.2448 3.56168 21.7539 3.80238C21.6108 3.87283 21.5484 3.94327 21.5572 4.10619C21.5719 4.3667 21.5609 4.62868 21.5609 4.87745C21.9711 4.92442 22.3681 4.91928 22.735 5.02202C23.6743 5.28546 24.254 6.22331 24.1256 7.18977C23.9994 8.13862 23.1672 8.89447 22.1934 8.90181C20.5137 8.91576 18.8347 8.90622 17.1549 8.90695C17.0382 8.90695 16.9208 8.90695 16.7557 8.90695V9.22177C16.7557 12.1314 16.7579 15.0418 16.7506 17.9515C16.7506 18.165 16.8115 18.27 17.0059 18.3727C18.0223 18.9099 18.5419 19.7765 18.6064 20.9169C18.627 21.2868 18.3716 21.5583 17.9981 21.5598C16.0065 21.5656 14.0141 21.5656 12.0224 21.5598C11.6372 21.559 11.4046 21.3088 11.4163 20.9243C11.4523 19.7714 11.9968 18.9275 12.9977 18.372C13.1364 18.2949 13.2472 18.2428 13.2472 18.0381C13.2384 15.0602 13.2414 12.0815 13.2406 9.10362C13.2406 9.04711 13.2347 8.99134 13.2303 8.90695C13.099 8.90695 12.9845 8.90695 12.87 8.90695C12.374 8.90548 12.0775 8.68533 12.0988 8.31181C12.1178 7.9647 12.3585 7.72547 12.8561 7.72841C15.6586 7.74162 18.4611 7.73501 21.2637 7.73501C21.5469 7.73501 21.8302 7.74455 22.1127 7.73208C22.6103 7.71006 22.9706 7.35268 22.9632 6.90431C22.9559 6.45226 22.5912 6.11176 22.0951 6.09635C22.0173 6.09415 21.9388 6.09635 21.861 6.09635C19.2243 6.09635 16.5884 6.09635 13.9517 6.09635C11.9887 6.09635 10.0264 6.09562 8.0634 6.09855C7.91883 6.09855 7.76913 6.10736 7.63043 6.14479C7.26939 6.24165 7.03016 6.56307 7.03309 6.91898C7.03603 7.27636 7.27893 7.60072 7.63997 7.68511C7.8271 7.72914 8.02597 7.7218 8.21971 7.74015C8.51911 7.7695 8.7466 8.0058 8.76054 8.29786C8.77375 8.58113 8.55727 8.86145 8.26374 8.89668C7.16445 9.02803 6.27797 8.48206 5.96903 7.54935C5.64174 6.56087 6.0747 5.54451 7.02355 5.10714C7.2393 5.00734 7.48807 4.96478 7.72657 4.93322C7.94598 4.9046 8.17274 4.92735 8.43545 4.92735C8.43545 4.59859 8.44206 4.28965 8.42885 3.98217C8.42665 3.9286 8.34739 3.85962 8.28795 3.82953C7.58934 3.47802 7.25618 2.9115 7.26425 2.1329C7.26939 1.6449 7.26205 1.15616 7.26645 0.668159C7.27012 0.230792 7.49541 0.00623762 7.93791 0.0040361C8.66074 0.000366918 9.38284 0.000366918 10.1057 0.0040361C10.5606 0.00623762 10.7779 0.230792 10.7801 0.694577C10.7823 1.20239 10.7852 1.71021 10.7801 2.21802C10.7727 2.93645 10.4447 3.46848 9.8114 3.79871C9.65949 3.87796 9.59638 3.95648 9.60592 4.126C9.61987 4.37771 9.60959 4.63088 9.60959 4.90313H12.0892L12.0885 4.90167ZM14.4287 8.92089V17.9926H15.5713V8.92089H14.4287ZM12.7057 20.3658H17.3112C17.0595 19.7758 16.6647 19.3531 16.0666 19.2907C15.3651 19.2174 14.6444 19.2166 13.9436 19.2907C13.3463 19.3539 12.9493 19.778 12.7049 20.3658H12.7057ZM17.1057 3.76055H12.8942C13.1379 4.3667 13.5525 4.77398 14.1719 4.85323C14.7164 4.92295 15.2851 4.92368 15.8296 4.85323C16.449 4.77324 16.8628 4.36523 17.1057 3.76055ZM8.43912 1.18625C8.43912 1.54363 8.42518 1.87459 8.44279 2.20335C8.46187 2.54678 8.70771 2.79409 9.00491 2.80876C9.29478 2.8227 9.5729 2.57834 9.59785 2.2393C9.6228 1.89367 9.60372 1.54509 9.60372 1.18625H8.43912ZM20.419 1.18111C20.419 1.57958 20.3911 1.95824 20.4278 2.33103C20.4564 2.6187 20.714 2.80583 20.9723 2.80876C21.2292 2.81096 21.4941 2.6231 21.522 2.33764C21.5594 1.95751 21.5315 1.57151 21.5315 1.18111H20.419Z" fill="#898989"/>
<path d="M28.828 16.0697H21.5616C21.5616 16.1702 21.5616 16.273 21.5616 16.3757C21.5616 17.8889 21.5601 19.402 21.5631 20.9152C21.5631 21.1999 21.4486 21.4062 21.1881 21.5184C20.9694 21.6124 20.736 21.583 20.5973 21.404C20.4828 21.2557 20.4014 21.04 20.3992 20.8536C20.3838 19.3698 20.3904 17.8859 20.3904 16.4021C20.3904 15.2016 20.3896 14.0003 20.3904 12.7997C20.3904 12.2765 20.5929 12.071 21.1125 12.071C23.5532 12.0695 25.994 12.071 28.4347 12.071H28.8273V11.7195C28.8273 9.02486 28.8273 6.3302 28.8273 3.63555C28.8273 3.52841 28.8207 3.41981 28.8354 3.31413C28.8757 3.0206 29.1341 2.80925 29.4291 2.81659C29.7116 2.82393 29.9523 3.03454 29.9897 3.31854C30.0037 3.42421 29.9978 3.53282 29.9978 3.63996C29.9978 9.34114 29.9978 15.0431 29.9978 20.7442C29.9978 21.2843 29.8062 21.5559 29.4217 21.5617C29.0269 21.5676 28.8266 21.2902 28.8266 20.734C28.8266 19.289 28.8266 17.8441 28.8266 16.3992C28.8266 16.2942 28.8266 16.19 28.8266 16.0712L28.828 16.0697ZM28.8148 13.2628H21.5763V14.8655H28.8148V13.2628Z" fill="#898989"/>
<path d="M10.5225 8.90461C10.2032 8.90755 9.92218 8.62502 9.92952 8.30873C9.93613 7.99685 10.1996 7.73854 10.5129 7.73634C10.838 7.73414 11.1125 8.00786 11.1059 8.32781C11.0993 8.63529 10.8307 8.90167 10.5225 8.90461Z" fill="#898989"/>
</g>
<defs>
<clipPath id="clip0_1358_137">
<rect width="30" height="21.5711" fill="white"/>
</clipPath>
</defs>
</svg>
