<svg width="32" height="30" viewBox="0 0 32 30" fill="none" xmlns="http://www.w3.org/2000/svg">
<g clip-path="url(#clip0_1358_1770)">
<path d="M0.733686 30.0005C0.490089 29.8604 0.422241 29.6569 0.422241 29.386C0.430416 25.4702 0.427963 21.5545 0.427963 17.6387C0.427963 17.1792 0.562841 17.0508 1.04431 17.05C1.7465 17.05 2.44786 17.05 3.16639 17.05V14.5927C2.79037 14.5144 2.20099 14.6991 2.23124 14.0807C2.2574 13.5319 2.78465 13.6979 3.14759 13.6446C3.23015 12.2394 4.03942 11.5732 5.46258 11.5529C5.55659 11.0119 5.64405 10.8984 5.95468 10.8984C6.2743 10.8984 6.3822 11.0386 6.44923 11.5701C7.05986 11.5482 7.63616 11.668 8.10047 12.0899C8.55578 12.5033 8.75605 13.0192 8.75115 13.6611C8.90401 13.6611 9.05197 13.6548 9.19992 13.6626C9.50156 13.6775 9.66914 13.8286 9.6814 14.0877C9.69448 14.3664 9.53671 14.5355 9.22281 14.5621C9.0814 14.5739 8.93834 14.5645 8.75932 14.5645V17.0516C8.85415 17.0516 8.98494 17.0516 9.11573 17.0516C16.4269 17.0516 23.7373 17.0531 31.0485 17.0469C31.3272 17.0469 31.5635 17.0876 31.7564 17.2856V24.7273C31.5594 24.887 31.3624 25.0365 31.0804 24.9019C30.8155 24.7758 30.8384 24.5473 30.8384 24.321C30.84 22.3005 30.8392 20.2808 30.8392 18.2603C30.8392 18.1569 30.8392 18.0528 30.8392 17.9463H26.7095V27.9941H30.8392C30.8392 27.5917 30.8343 27.2034 30.8409 26.8151C30.8466 26.4926 31.1351 26.2836 31.4409 26.3893C31.5578 26.43 31.6518 26.5294 31.7564 26.6022V30.0013H31.1441C30.6504 29.7477 30.9275 29.2646 30.809 28.91H21.6479C21.5793 29.292 21.7542 29.7218 21.3536 30.0013H20.9866C20.5436 29.7351 20.7422 29.2866 20.667 28.9053H11.5157C11.4405 29.2866 11.6375 29.7344 11.1961 30.0013H10.8291C10.4204 29.7187 10.6141 29.2725 10.5324 28.9085H1.34513C1.34513 29.0783 1.33124 29.2341 1.3484 29.3868C1.37946 29.6584 1.28301 29.8612 1.03941 30.0013H0.733686V30.0005ZM25.74 27.9972V17.9424H21.6471V27.9972H25.74ZM10.5364 17.9479H1.3672V21.0229H10.5364V17.9479ZM13.5479 20.1007C13.6787 19.6529 13.7866 19.5731 14.2566 19.5731C15.4395 19.5731 16.6223 19.5731 17.8043 19.5731C18.4247 19.5731 18.4288 19.5762 18.6553 20.1015C19.2307 20.1258 19.4286 20.2401 19.4376 20.554C19.4457 20.8476 19.288 20.9438 18.6185 21.0511V22.4931H20.6662V17.9487H11.5166V22.4954H13.5602V21.0347C12.9389 20.99 12.7362 20.8671 12.7452 20.5548C12.7542 20.2409 12.9528 20.1258 13.5487 20.1007H13.5479ZM10.5364 28.0004V21.9435H9.29802V22.2848C9.29802 23.5249 9.29802 24.7649 9.29802 26.0049C9.29802 26.4918 9.14843 26.6429 8.65142 26.6429C6.85714 26.6445 5.06285 26.6445 3.26775 26.6429C2.76012 26.6429 2.61707 26.5028 2.61625 26.0127C2.61462 24.7625 2.61625 23.5131 2.61625 22.2629C2.61625 22.1588 2.61625 22.0547 2.61625 21.9396H1.36966V28.0004H10.5364ZM12.961 25.8155C12.961 25.4867 12.9552 25.1759 12.9626 24.8643C12.9708 24.5355 13.1326 24.3789 13.4702 24.3774C14.255 24.3735 15.0397 24.3703 15.8245 24.3821C15.9544 24.3844 16.0836 24.4643 16.2128 24.5105C16.3288 24.552 16.4425 24.6295 16.5593 24.6342C16.9664 24.6498 17.3752 24.6295 17.7822 24.6467C17.9245 24.6529 18.1223 24.6905 18.1901 24.7829C18.2801 24.9066 18.3389 25.132 18.2784 25.2526C18.2122 25.3849 17.9997 25.5164 17.8411 25.5274C17.3474 25.5626 16.8495 25.5399 16.355 25.5399V25.7419C16.5561 25.8703 16.7653 25.9407 16.861 26.0816C16.9599 26.2272 17.0539 26.2476 17.2027 26.2476C17.9261 26.2445 18.6504 26.2437 19.3738 26.2476C19.6852 26.2491 19.8741 26.4135 19.8798 26.6742C19.8863 26.9459 19.6885 27.1228 19.3648 27.1267C19.0288 27.1306 18.6921 27.1275 18.3561 27.1275C17.891 27.1275 17.4258 27.1275 16.964 27.1275V27.9871H20.667V23.445H11.5174V27.9878H12.361C12.361 27.4618 12.361 26.9553 12.361 26.4488C12.361 25.9924 12.4582 25.8851 12.9618 25.8147L12.961 25.8155ZM8.35632 21.9435H3.55958V25.7121H8.35632V21.9435ZM4.09664 13.9523C4.09664 14.8588 4.09582 15.7348 4.09664 16.61C4.09664 16.9427 4.198 17.0398 4.55441 17.0406C5.49038 17.0429 6.42716 17.0437 7.36313 17.0406C7.70401 17.0398 7.81109 16.9451 7.81354 16.6296C7.81845 15.7912 7.816 14.9535 7.81354 14.1151C7.81354 14.0611 7.79147 14.0079 7.77921 13.9515H4.09746L4.09664 13.9523ZM14.5108 20.4796C14.5108 21.0887 14.501 21.6821 14.5223 22.2739C14.5256 22.3522 14.6874 22.4892 14.7781 22.4907C15.6544 22.5072 16.5316 22.5072 17.4079 22.4907C17.4978 22.4892 17.6596 22.3514 17.6621 22.2723C17.6833 21.6805 17.6735 21.0879 17.6735 20.4796H14.51H14.5108ZM15.9732 27.9964V26.7463H13.3002V27.9964H15.9732ZM4.21272 13.0332H7.69175C7.46777 12.6724 7.18003 12.4829 6.78193 12.4759C6.2318 12.4672 5.68084 12.4688 5.1307 12.4759C4.72852 12.4806 4.44487 12.6794 4.2119 13.034L4.21272 13.0332ZM15.4043 25.2737H13.9076V25.8209H15.4043V25.2737Z" fill="#898989"/>
<path d="M31.7556 8.78705C31.5921 8.99998 31.373 9.07435 31.0975 9.072C30.088 9.06261 29.0784 9.06809 28.0689 9.06809C27.9594 9.06809 27.8498 9.06809 27.7068 9.06809C27.7068 9.56362 27.6986 10.0294 27.7166 10.4944C27.719 10.5578 27.8449 10.6432 27.9316 10.6721C28.8773 10.9923 29.4667 11.6021 29.6212 12.5642C29.8076 13.726 28.9967 14.8588 27.8049 15.1132C26.5624 15.3786 25.3337 14.6983 24.9643 13.5522C24.5899 12.3881 25.2332 11.0221 26.7373 10.6275V9.09314H21.5972C21.5972 9.56441 21.5874 10.031 21.6087 10.496C21.6119 10.5617 21.7582 10.6463 21.8547 10.6792C22.7662 10.9884 23.3482 11.5826 23.5157 12.4985C23.6719 13.3549 23.3825 14.09 22.6844 14.6396C21.8939 15.2619 21.0046 15.3519 20.0833 14.9261C19.1833 14.5104 18.6871 13.6493 18.7901 12.6347C18.8849 11.6937 19.4416 11.051 20.3621 10.7301C20.6269 10.6377 20.6956 10.5257 20.6809 10.2768C20.6588 9.88929 20.6751 9.49943 20.6751 9.08922H15.5016C15.5016 9.56676 15.4909 10.0333 15.513 10.4991C15.5163 10.5649 15.6667 10.6518 15.7648 10.6823C17.4503 11.2052 18.0144 13.1866 16.8283 14.4298C16.1522 15.1374 15.11 15.3637 14.1716 15.0067C13.225 14.6466 12.6397 13.7769 12.6675 12.7717C12.6928 11.8691 13.3476 11.0299 14.2697 10.7191C14.3555 10.6901 14.443 10.6643 14.5476 10.6314V9.06887C14.4258 9.06887 14.3163 9.06887 14.2075 9.06887C12.7288 9.06887 11.2509 9.06965 9.77211 9.06887C9.35521 9.06887 9.16393 8.9217 9.16312 8.61482C9.16312 8.34004 9.32906 8.17565 9.64704 8.16391C9.93069 8.15295 10.216 8.16156 10.5593 8.16156C10.48 7.51337 10.7236 6.88318 10.2299 6.28196C9.50726 5.40126 8.86557 4.45872 8.20671 3.53184C8.09472 3.37449 8.02033 3.16077 8.01543 2.97054C7.99499 2.1603 8.0048 1.35006 8.00725 0.539042C8.00807 0.17737 8.15603 0.00592824 8.45766 0.00201404C8.76829 -0.00190017 8.92933 0.18285 8.93014 0.551568C8.93178 1.28431 8.92524 2.01626 8.93587 2.74822C8.9375 2.87504 8.9751 3.02221 9.04949 3.12476C9.73614 4.08139 10.4334 5.03176 11.134 5.979C11.1912 6.0565 11.2991 6.15122 11.3841 6.15201C12.3822 6.16375 13.3811 6.15984 14.4274 6.15984C14.4274 6.0385 14.4274 5.93516 14.4274 5.83261C14.4274 4.77812 14.4258 3.72364 14.4274 2.66915C14.4283 2.20023 14.5762 2.05932 15.0659 2.05932C16.7179 2.05854 18.3691 2.05854 20.0212 2.05932C20.5182 2.05932 20.6751 2.21197 20.6751 2.69342C20.676 3.8348 20.6751 4.97618 20.6751 6.13948H21.6585C21.6585 5.79033 21.6585 5.44197 21.6585 5.09361C21.6585 4.63486 21.6561 4.17533 21.6593 3.71659C21.6618 3.36979 21.8106 3.2187 22.1711 3.19757C22.3231 3.18896 22.4768 3.19365 22.6296 3.19365C24.1591 3.19365 25.6885 3.19287 27.2179 3.19365C27.7689 3.19365 27.898 3.32282 27.8989 3.85359C27.9005 4.59572 27.9021 5.33785 27.9054 6.07999C27.9054 6.09721 27.9209 6.11365 27.9438 6.16062C28.467 6.16062 29.0049 6.16062 29.5419 6.16062C30.0618 6.16062 30.5825 6.17079 31.1016 6.1567C31.3795 6.14966 31.5978 6.22403 31.7556 6.44479V8.78861V8.78705ZM30.8229 7.0875H11.5206V8.14199H30.8229V7.0875ZM19.7196 2.9862H15.3798V6.1434H19.7196V2.9862ZM22.5929 6.10738H26.9523V4.10723H22.5929V6.10738ZM16.5234 12.9024C16.5307 12.1157 15.8841 11.4831 15.0699 11.48C14.2721 11.4769 13.6141 12.0914 13.5936 12.8586C13.5732 13.6156 14.255 14.2818 15.0552 14.2881C15.8449 14.2943 16.5168 13.6602 16.5234 12.9017V12.9024ZM19.6991 12.8844C19.7007 13.6469 20.3547 14.2802 21.1493 14.2888C21.9438 14.2975 22.6337 13.6399 22.6296 12.8766C22.6264 12.1172 21.9642 11.4831 21.1713 11.48C20.3531 11.4769 19.6975 12.1024 19.6991 12.8844ZM28.7114 12.8836C28.7122 12.1024 28.0771 11.4839 27.2686 11.48C26.4438 11.4761 25.7989 12.0985 25.8038 12.8923C25.8087 13.6657 26.4651 14.2943 27.2629 14.2896C28.064 14.2849 28.7114 13.6579 28.7122 12.8836H28.7114Z" fill="#898989"/>
<path d="M1.34537 8.15888C2.14156 8.15888 2.89524 8.15888 3.6481 8.15888C4.65682 8.15888 5.66554 8.15888 6.67427 8.15888C6.76582 8.15888 6.85901 8.1534 6.94893 8.16436C7.21051 8.19567 7.39361 8.37964 7.38135 8.61214C7.36746 8.86891 7.22113 9.02705 6.94893 9.06149C6.86882 9.07167 6.78626 9.06854 6.70451 9.06854C4.83993 9.06854 2.97535 9.06854 1.10995 9.06854C0.56226 9.06854 0.427382 8.93702 0.427382 8.41252C0.427382 7.85592 0.414303 7.29932 0.435557 6.74428C0.442096 6.57206 0.503404 6.37791 0.604767 6.23622C1.33474 5.21461 2.08515 4.20632 2.81594 3.18471C2.91159 3.05084 2.97208 2.86766 2.97616 2.70483C2.99333 1.98305 2.98107 1.26049 2.98516 0.538711C2.98679 0.17469 3.13311 0.0055964 3.43475 0.000116524C3.74456 -0.00536336 3.91132 0.182518 3.91213 0.546539C3.91377 1.35678 3.92276 2.16702 3.90478 2.97647C3.90069 3.1487 3.83529 3.34363 3.73393 3.48532C3.00968 4.4991 2.26254 5.498 1.53992 6.51335C1.42875 6.66913 1.36989 6.8805 1.35354 7.07151C1.32411 7.41909 1.34537 7.7698 1.34537 8.15888Z" fill="#898989"/>
<path d="M3.35275 6.64441C2.91787 6.6585 2.66937 6.28587 2.87373 5.98918C3.31596 5.34568 3.78354 4.71784 4.25602 4.0947C4.41706 3.88255 4.66065 3.87316 4.87727 4.02581C5.08981 4.17534 5.14867 4.40001 4.99335 4.61764C4.55112 5.23843 4.10071 5.85374 3.63967 6.46045C3.56446 6.55987 3.41406 6.60684 3.35275 6.64441Z" fill="#898989"/>
<path d="M28.2144 23.0464C28.2144 23.3102 28.2242 23.574 28.212 23.837C28.1997 24.1134 28.0125 24.2794 27.7452 24.2731C27.5 24.2676 27.3014 24.0946 27.2956 23.8441C27.2842 23.3071 27.2842 22.77 27.2956 22.233C27.3014 21.9661 27.5073 21.7923 27.7681 21.797C28.0158 21.8017 28.1997 21.9684 28.2112 22.226C28.2234 22.4992 28.2136 22.7724 28.2144 23.0464Z" fill="#898989"/>
<path d="M25.1564 23.055C25.1564 23.3087 25.1637 23.5631 25.1539 23.8167C25.1433 24.1017 24.9724 24.2676 24.7068 24.2723C24.4362 24.277 24.2384 24.0923 24.2343 23.8058C24.2269 23.2883 24.2261 22.7708 24.2343 22.2534C24.2392 21.9817 24.4297 21.8025 24.6863 21.797C24.9585 21.7915 25.1441 21.97 25.1539 22.2644C25.1629 22.5274 25.1555 22.792 25.1555 23.055H25.1564Z" fill="#898989"/>
<path d="M7.44407 19.5099C7.4269 19.7659 7.22663 19.935 6.95687 19.9201C6.69284 19.906 6.52771 19.7142 6.54815 19.4449C6.56613 19.1999 6.75823 19.034 7.01082 19.0433C7.26832 19.0527 7.46041 19.2602 7.44407 19.5099Z" fill="#898989"/>
<path d="M4.92553 19.045C5.18302 19.0481 5.38166 19.2509 5.37349 19.4998C5.3645 19.7519 5.16259 19.9319 4.89774 19.9225C4.64515 19.9139 4.47021 19.7354 4.47021 19.4873C4.47021 19.2305 4.66477 19.0411 4.92635 19.045H4.92553Z" fill="#898989"/>
<path d="M3.29799 19.4826C3.30044 19.7363 3.10507 19.9257 2.84186 19.9242C2.59172 19.9226 2.40289 19.7465 2.39226 19.5053C2.38164 19.2541 2.57537 19.0513 2.83286 19.045C3.09199 19.0396 3.29472 19.2298 3.29717 19.4826H3.29799Z" fill="#898989"/>
<path d="M9.51136 19.4904C9.50891 19.7526 9.32253 19.928 9.05196 19.9225C8.77975 19.917 8.61626 19.7432 8.62444 19.4677C8.6318 19.2148 8.80673 19.0457 9.06095 19.0449C9.32499 19.0441 9.51381 19.2305 9.51136 19.4904Z" fill="#898989"/>
</g>
<defs>
<clipPath id="clip0_1358_1770">
<rect width="31.3333" height="30" fill="white" transform="translate(0.422241)"/>
</clipPath>
</defs>
</svg>
