<svg width="35" height="30" viewBox="0 0 35 30" fill="none" xmlns="http://www.w3.org/2000/svg">
<path d="M34.827 29.6859C34.6456 29.9202 34.4046 30.0014 34.1003 29.9997C31.7695 29.9928 29.4387 29.9954 27.1078 29.9954C27.0627 29.9954 27.0176 29.9971 26.9724 29.9954C26.5842 29.9763 26.3712 29.7888 26.3793 29.475C26.3875 29.1777 26.5978 28.9945 26.9724 28.991C27.7948 28.9832 28.6163 28.9884 29.4387 28.9884C29.5605 28.9884 29.6815 28.9884 29.8268 28.9884V25.3704H13.6771V28.9884C13.8044 28.9884 13.9334 28.9884 14.0625 28.9884C17.5642 28.9884 21.0668 28.9884 24.5685 28.9884C25.1083 28.9884 25.3574 29.144 25.3629 29.4845C25.3683 29.8294 25.1155 29.9971 24.5847 29.9971C19.5403 29.9971 14.4949 29.9971 9.45051 29.9971C8.82943 29.9971 8.67777 29.8493 8.67777 29.2538C8.67777 27.1405 8.71659 25.0264 8.66423 22.9149C8.62902 21.4871 9.40808 20.5622 10.6412 20.2183C10.6412 19.6513 10.6367 19.0722 10.6412 18.4939C10.6556 16.9607 11.7516 15.691 13.3376 15.4896C14.1131 15.3911 14.9111 15.4498 15.6992 15.4628C15.9899 15.468 16.1289 15.6815 16.1397 15.9468C16.1496 16.2044 15.933 16.4161 15.6468 16.4205C15.0393 16.4308 14.4308 16.417 13.8224 16.4265C12.8339 16.4421 11.9646 17.0082 11.7877 17.9131C11.6459 18.634 11.7037 19.3911 11.6893 20.1318C11.6884 20.1863 11.8138 20.2658 11.896 20.2952C13.0343 20.7005 13.6455 21.5199 13.6581 22.6764C13.6635 23.2252 13.659 23.774 13.659 24.3488H29.8503C29.8503 23.8164 29.8259 23.29 29.8584 22.7671C29.881 22.3955 29.9207 22.0065 30.057 21.6634C30.326 20.9849 30.8632 20.5398 31.5844 20.2978C31.6847 20.2641 31.821 20.1465 31.8237 20.0644C31.8417 19.5043 31.8625 18.9417 31.8192 18.3833C31.7271 17.1871 30.8442 16.4274 29.5804 16.4256C27.1141 16.4222 24.6479 16.4248 22.1817 16.4248C20.7066 16.4248 19.2315 16.4222 17.7565 16.4274C17.4965 16.4274 17.2916 16.3643 17.186 16.118C17.0686 15.844 17.2365 15.5268 17.5371 15.4637C17.613 15.4481 17.6942 15.4516 17.7727 15.4516C21.7817 15.4516 25.7908 15.4455 29.7989 15.4585C31.4436 15.4637 32.823 16.7904 32.8582 18.3652C32.8717 18.9788 32.86 19.5934 32.86 20.1068C33.3357 20.4127 33.8115 20.6219 34.1428 20.9607C34.4506 21.2744 34.6032 21.7273 34.8243 22.1189V29.6885L34.827 29.6859ZM12.6091 28.9685C12.6091 28.6902 12.6091 28.4344 12.6091 28.1777C12.6091 26.3039 12.6137 24.4292 12.6055 22.5554C12.6028 21.8544 12.0937 21.2943 11.4103 21.2018C10.4489 21.0705 9.70327 21.6945 9.69966 22.6582C9.69153 24.6833 9.69695 26.7084 9.69785 28.7335C9.69785 28.8061 9.70778 28.8787 9.7141 28.9694L12.6091 28.9685ZM33.779 28.9746C33.7961 28.9201 33.807 28.9003 33.807 28.8804C33.8088 26.7792 33.8142 24.679 33.8034 22.5778C33.8024 22.3704 33.7375 22.1483 33.6463 21.9581C33.3655 21.3712 32.6984 21.0782 32.0132 21.2122C31.3867 21.3341 30.9038 21.8976 30.902 22.5424C30.8966 24.6219 30.8993 26.7015 30.9002 28.781C30.9002 28.8424 30.9146 28.9037 30.9237 28.9755L33.779 28.9746Z" fill="#898989"/>
<path d="M14.9798 1.10773C15.2253 1.32813 15.4636 1.55717 15.7209 1.76374C15.8049 1.83116 15.9394 1.87178 16.0513 1.87178C19.8563 1.87697 23.6613 1.87697 27.4663 1.87178C27.5692 1.87178 27.6956 1.84239 27.7705 1.78189C28.0341 1.56668 28.2796 1.33158 28.5992 1.0429C28.4033 1.02648 28.3103 1.01352 28.2174 1.01265C27.8012 1.01006 27.3841 1.0187 26.968 1.0092C26.5952 1.00055 26.3857 0.817318 26.3794 0.519995C26.3731 0.219214 26.5798 0.0117792 26.9427 0.00832199C27.8879 -0.00204975 28.8339 -0.00377836 29.7791 0.00918632C30.1826 0.0152365 30.3577 0.238229 30.3577 0.686807C30.3586 2.77758 30.3577 4.86921 30.3577 6.95999C30.3577 8.55551 30.3577 10.1502 30.3577 11.7457C30.3577 12.2591 30.1898 12.4207 29.6518 12.4207C24.3835 12.4216 19.1143 12.4216 13.846 12.4207C13.3142 12.4207 13.149 12.2574 13.149 11.737C13.149 8.06112 13.149 4.38606 13.149 0.710144C13.149 0.182049 13.3296 0.00486481 13.873 0.0040005C17.4641 0.00227187 21.0551 0.00313606 24.6471 0.005729C24.7798 0.005729 24.9513 -0.00377837 25.0361 0.0662309C25.1752 0.181184 25.3413 0.358368 25.3404 0.509623C25.3404 0.660013 25.177 0.846705 25.0325 0.948694C24.9233 1.02562 24.731 1.01006 24.5758 1.01006C21.5137 1.01265 18.4517 1.01265 15.3896 1.01265C15.2696 1.01265 15.1486 1.01265 15.0285 1.01265C15.0123 1.04463 14.9969 1.07575 14.9807 1.10773H14.9798ZM27.3363 2.90377H16.1822V7.70416C16.6263 7.23484 17.0245 6.81392 17.4217 6.393C18.2206 5.5477 18.9789 5.54943 19.7859 6.40078C20.2607 6.90208 20.7319 7.40597 21.2248 7.92974C21.335 7.81652 21.427 7.7249 21.5155 7.63069C22.2612 6.83812 23.0032 6.04295 23.7534 5.25383C24.5315 4.43447 25.3918 4.43706 26.1763 5.2521C26.5446 5.63586 26.912 6.02048 27.3363 6.46301V2.9029V2.90377ZM21.9244 8.67478C22.1537 8.92025 22.3668 9.12768 22.5536 9.35499C22.6936 9.5244 22.8534 9.57367 23.0727 9.57194C24.3763 9.56329 25.6798 9.56762 26.9833 9.56762H27.358C27.358 9.04557 27.3625 8.57193 27.3534 8.10001C27.3516 8.02136 27.3164 7.92715 27.2623 7.86924C26.6096 7.17261 25.9542 6.4777 25.2907 5.79144C25.0813 5.57536 24.8475 5.57017 24.6453 5.78279C23.738 6.73699 22.8407 7.69897 21.9244 8.67564V8.67478ZM28.4972 11.4311C28.5143 11.4069 28.5315 11.3835 28.5487 11.3593C28.2959 11.1312 28.0512 10.8935 27.7858 10.6808C27.6938 10.6065 27.5493 10.5564 27.4284 10.5564C23.6468 10.5503 19.8662 10.5503 16.0847 10.5538C15.9881 10.5538 15.8635 10.559 15.8013 10.6134C15.5142 10.8598 15.2452 11.1242 14.9175 11.4319H28.4981L28.4972 11.4311ZM21.307 9.54947C21.2844 9.5002 21.2781 9.46822 21.2582 9.44834C20.462 8.59959 19.6667 7.75083 18.8669 6.9064C18.6728 6.70156 18.4787 6.73786 18.2946 6.93492C17.6347 7.6402 16.9667 8.33856 16.3185 9.05249C16.2102 9.17176 16.1804 9.35759 16.0983 9.55033H21.307V9.54947ZM14.2287 1.7283V10.6428C14.2531 10.6575 14.2775 10.6713 14.3027 10.686C14.5149 10.4648 14.7387 10.253 14.9319 10.0188C15.0204 9.91161 15.098 9.76036 15.098 9.62812C15.108 7.35325 15.1062 5.07838 15.1016 2.80437C15.1016 2.70411 15.0863 2.57533 15.0222 2.50705C14.7857 2.25208 14.5257 2.01698 14.2278 1.7283H14.2287ZM29.2104 10.6783C29.2356 10.6627 29.2609 10.6463 29.2862 10.6307V1.70929C29.0172 1.9755 28.7933 2.16997 28.6064 2.39382C28.5044 2.51569 28.4105 2.68683 28.4096 2.83635C28.397 5.09999 28.3997 7.36275 28.4051 9.62639C28.4051 9.73443 28.434 9.86753 28.5035 9.94705C28.7256 10.202 28.9729 10.4362 29.2104 10.6791V10.6783Z" fill="#898989"/>
<path d="M5.49569 27.2118C5.78908 27.2386 6.06982 27.2481 6.34516 27.2922C7.44197 27.4676 8.22192 28.3639 8.2129 29.4244C8.20929 29.7926 8.02964 29.9923 7.63786 29.994C5.84775 30.0018 4.05765 30.0026 2.26664 29.994C1.83694 29.9923 1.63112 29.7347 1.66903 29.3069C1.77465 28.1158 2.72071 27.2662 3.97099 27.2403C4.10549 27.2377 4.24 27.2403 4.39978 27.2403V10.4407C4.28513 10.4407 4.16597 10.4407 4.04772 10.4407C3.02312 10.4407 1.99853 10.4424 0.973935 10.4407C0.323972 10.4389 0.147038 10.2246 0.291474 9.6187C0.855678 7.25135 1.41988 4.88486 1.98589 2.51837C2.08519 2.10177 2.21518 2.00065 2.65662 2.00065C4.18764 1.99978 5.71957 1.99978 7.25059 2.00065C7.66314 2.00065 7.82021 2.11387 7.91229 2.49763C8.48913 4.91684 9.06326 7.33691 9.63559 9.75785C9.73309 10.1719 9.53088 10.4225 9.07861 10.4372C8.66426 10.4502 8.24901 10.4398 7.79132 10.4398C7.79132 10.5859 7.79132 10.7 7.79132 10.814C7.79132 12.4528 7.79223 14.0915 7.78952 15.7302C7.78952 15.8573 7.80396 16.025 7.73084 16.1019C7.59994 16.2385 7.40135 16.407 7.24066 16.3984C7.08088 16.3897 6.90485 16.1987 6.7902 16.05C6.7225 15.9619 6.74867 15.8011 6.74777 15.6723C6.74597 14.0664 6.74597 12.4597 6.74597 10.8538C6.74597 10.7276 6.74597 10.6023 6.74597 10.4588H5.49659V27.2144L5.49569 27.2118ZM6.96623 2.98856H2.92743C2.41469 5.13897 1.90465 7.27727 1.3937 9.41818H8.50177C7.98631 7.25739 7.47717 5.126 6.96713 2.98856H6.96623ZM7.0872 28.9706C6.88318 28.5463 6.57625 28.2835 6.13572 28.2662C5.33952 28.2351 4.54061 28.2334 3.7444 28.268C3.30477 28.287 3.00146 28.5592 2.80557 28.9706H7.0872Z" fill="#898989"/>
<path d="M21.2112 6.1411C20.4186 6.13764 19.7723 5.51533 19.7795 4.76338C19.7867 4.01057 20.4376 3.39431 21.2256 3.39258C22.0309 3.39085 22.67 4.01402 22.6628 4.7945C22.6556 5.5525 22.0164 6.14542 21.2112 6.14196V6.1411ZM21.2148 4.38308C20.9846 4.40815 20.8339 4.52397 20.8321 4.77116C20.8312 5.02008 20.9873 5.15664 21.2284 5.15924C21.4748 5.16183 21.6319 5.0028 21.6328 4.77202C21.6328 4.54212 21.4856 4.39951 21.2148 4.38308Z" fill="#898989"/>
</svg>
