<svg width="25" height="25" viewBox="0 0 25 25" fill="none" xmlns="http://www.w3.org/2000/svg">
<g clip-path="url(#clip0_1358_3799)">
<path d="M25 22.3579C24.9636 22.4879 24.9272 22.6192 24.8908 22.7493C24.2719 24.974 21.4451 25.7463 19.7795 24.1418C19.3699 23.7466 18.9707 23.3396 18.5703 22.9352C18.3284 22.6907 18.3115 22.4151 18.5156 22.2006C18.7185 21.9886 19.024 22.0016 19.2711 22.2435C19.6781 22.6426 20.0668 23.0587 20.4855 23.4449C21.6714 24.5358 23.5502 23.9767 23.9481 22.4164C24.1301 21.7052 23.9702 21.055 23.4774 20.5141C23.0496 20.046 22.5893 19.6078 22.1408 19.1593C20.5935 17.6107 19.0461 16.0633 17.4988 14.5173C17.4416 14.4601 17.3818 14.4068 17.3324 14.36C16.3416 15.3521 15.3586 16.3351 14.36 17.3337C14.7163 17.6887 15.0843 18.0553 15.4522 18.422C15.6538 18.6235 15.8566 18.8225 16.0556 19.0266C16.3065 19.2841 16.326 19.5649 16.1154 19.7795C15.9099 19.9888 15.6083 19.9693 15.3625 19.7262C14.9633 19.3309 14.5681 18.933 14.1715 18.5364C13.498 17.8629 12.8257 17.1907 12.1522 16.5171C12.095 16.4612 12.0352 16.4066 11.9819 16.3572C11.7322 16.6134 11.4904 16.8617 11.2355 17.1231C11.2771 17.1673 11.3343 17.2323 11.3941 17.2947C11.6854 17.6002 11.6867 17.8382 11.3902 18.136C10.5282 19.0006 9.66481 19.8627 8.80144 20.7248C7.66762 21.8573 6.5455 23.0028 5.39867 24.121C3.78246 25.6969 1.07142 25.065 0.338081 22.9391C-0.0701988 21.7546 0.152145 20.6558 1.03242 19.7613C3.01661 17.742 5.0307 15.7513 7.03309 13.7502C7.30485 13.4784 7.5623 13.4771 7.83925 13.7411C7.90296 13.8022 7.95237 13.8802 7.99788 13.9361C8.57389 13.3497 9.1239 12.7893 9.71292 12.1899C9.5985 12.0885 9.42686 11.9506 9.27213 11.7959C7.17612 9.7038 5.09181 7.59999 2.9789 5.52478C2.64473 5.19582 2.19354 4.98128 1.78266 4.73813C1.54212 4.5964 1.36788 4.41827 1.23656 4.17122C0.880287 3.49639 0.505814 2.83065 0.139142 2.16102C-0.066298 1.78525 -0.0493947 1.63702 0.248364 1.34316C0.700852 0.894575 1.15984 0.447288 1.61753 0C1.73195 0 1.84508 0 1.9595 0C2.68894 0.405679 3.41448 0.819161 4.15043 1.21314C4.41048 1.35227 4.61592 1.5239 4.75245 1.78915C5.13602 2.5342 5.67563 3.15182 6.27114 3.73823C8.21242 5.65091 10.1303 7.58699 12.056 9.51526C12.1249 9.58418 12.173 9.67129 12.2341 9.75451C12.3108 9.6895 12.342 9.66609 12.3693 9.63749C13.2782 8.72861 14.191 7.82363 15.0947 6.90955C15.5134 6.48567 15.5069 5.92786 15.0869 5.49748C14.7579 5.15941 14.4224 4.82655 14.087 4.49628C13.4368 3.85526 12.619 3.82665 11.9234 4.41567C11.6451 4.65101 11.415 4.64581 11.1523 4.38836C10.8389 4.0802 10.5295 3.76814 10.22 3.45608C9.92486 3.15832 9.92226 2.91127 10.2161 2.61481C10.6114 2.21563 11.0067 1.81776 11.4072 1.42378C11.9234 0.915379 12.515 0.517501 13.2067 0.292557C13.5838 0.170333 13.9752 0.0962189 14.3587 0C14.7007 0 15.0427 0 15.3833 0C15.4197 0.0143028 15.4561 0.0377074 15.4952 0.0429084C16.6355 0.183336 17.5912 0.689135 18.3973 1.49789C19.643 2.74744 20.8912 3.99308 22.1382 5.24003C22.4372 5.53909 22.4593 5.69382 22.263 6.05919C22.2175 6.1437 22.1733 6.22952 22.1356 6.29973C22.3007 6.60269 22.5282 6.67941 22.826 6.53898C22.8624 6.52208 22.9027 6.51298 22.9417 6.50127C23.194 6.41936 23.3981 6.48827 23.5788 6.67811C23.8077 6.91996 24.0456 7.154 24.2849 7.38545C24.5774 7.6663 24.8635 7.95106 25 8.34764V8.88464C24.8687 9.10568 24.7751 9.36053 24.6008 9.54127C23.8454 10.3253 23.0691 11.0912 22.2942 11.8583C21.7637 12.3836 21.0199 12.3823 20.4855 11.8609C20.1709 11.5541 19.8796 11.2225 19.548 10.9351C19.2386 10.6673 19.1567 10.3682 19.3114 10.0055C19.4232 9.74151 19.3543 9.55817 19.1086 9.42165C18.0359 10.0913 17.2635 11.0912 16.3351 11.948C16.4196 12.0365 16.4833 12.1067 16.551 12.1743C19.0409 14.6643 21.5296 17.1556 24.0222 19.643C24.4214 20.0421 24.7179 20.4972 24.8817 21.0381C24.9259 21.1838 24.9597 21.3333 24.9987 21.4802V22.3592L25 22.3579ZM21.2722 5.79003C21.2592 5.77053 21.2488 5.74843 21.2319 5.73152C20.0005 4.50148 18.7887 3.25064 17.5314 2.0479C16.5783 1.13642 15.4171 0.834764 14.1104 1.06101C12.8387 1.28075 12.0326 2.15972 11.2225 3.02959C11.3499 3.16872 11.4696 3.29745 11.5853 3.42357C12.6203 2.77864 13.8347 2.94378 14.5733 3.61211C15.0375 4.03209 15.4795 4.47808 15.9034 4.93707C16.2922 5.35705 16.4534 5.87455 16.3637 6.44536C16.3234 6.70541 16.2311 6.95766 16.17 7.18781C16.7733 7.79113 17.3753 8.39444 17.989 9.00816C18.2595 8.80793 18.5443 8.59338 18.8342 8.38534C19.1047 8.1916 19.3114 8.21111 19.5519 8.44255C19.6924 8.57778 19.8159 8.73511 19.9693 8.85213C20.3984 9.1785 20.5492 9.56597 20.3217 10.0809C20.2892 10.1537 20.3386 10.3006 20.3997 10.3669C20.6403 10.6309 20.9016 10.8766 21.1539 11.1315C21.3086 11.2875 21.462 11.2979 21.6194 11.1406C22.3787 10.3812 23.1393 9.62449 23.8961 8.86254C24.0742 8.6831 24.0664 8.57258 23.8844 8.38404C23.7089 8.20331 23.5047 8.04468 23.3565 7.84444C23.1328 7.54148 22.878 7.48947 22.5438 7.62859C22.2851 7.73652 22.0549 7.6728 21.8625 7.45826C21.7221 7.30093 21.5647 7.1579 21.4152 7.00837C21.0815 6.67464 21.0217 6.30017 21.2358 5.88495C21.2501 5.85635 21.2605 5.82514 21.2735 5.79263L21.2722 5.79003ZM7.42967 14.7488C6.85496 15.3235 6.28025 15.8982 5.70683 16.4729C4.39618 17.7836 3.08032 19.089 1.77746 20.4062C0.834778 21.3593 0.958303 22.8546 2.02451 23.6191C2.89178 24.2419 4.0022 24.1249 4.81226 23.3175C6.63131 21.5036 8.44647 19.6859 10.2616 17.8681C10.311 17.8187 10.3565 17.7628 10.3982 17.7147C9.40866 16.7252 8.43087 15.7487 7.42967 14.7475V14.7488ZM3.91768 4.98128C6.70413 7.76772 9.49448 10.5607 12.2601 13.3276C12.6151 12.9726 12.9844 12.6021 13.3354 12.251C10.5633 9.47886 7.77294 6.68851 4.99689 3.91117C4.63802 4.26744 4.26355 4.63801 3.91768 4.97998V4.98128ZM13.6267 16.5913C14.6227 15.5953 15.6057 14.6123 16.5952 13.6228C16.1466 13.1716 15.6902 12.7087 15.2286 12.2523C15.0765 12.1028 14.9243 12.1366 14.7813 12.2796C13.9478 13.1144 13.1144 13.9478 12.2809 14.78C12.1249 14.936 12.1236 15.0921 12.2796 15.2468C12.7282 15.6954 13.1768 16.1414 13.6267 16.5913ZM14.1182 11.5138C14.5013 11.2806 14.9698 11.1995 15.5238 11.2706C15.5654 11.2758 15.6252 11.2615 15.6538 11.2342C16.17 10.7206 16.6836 10.2031 17.179 9.7051C16.5926 9.12259 16.0179 8.55308 15.4496 7.98746C14.6474 8.78972 13.8269 9.61018 13.0195 10.4176C13.3809 10.7778 13.7476 11.1432 14.1195 11.5138H14.1182ZM1.86328 1.08831C1.65524 1.30676 1.455 1.5304 1.23916 1.73844C1.13254 1.84116 1.12213 1.92048 1.19625 2.0505C1.50181 2.58621 1.79177 3.13101 2.09473 3.66802C2.14414 3.75514 2.22085 3.83575 2.30407 3.89166C2.51211 4.03209 2.73575 4.15041 2.94509 4.28954C3.05561 4.36235 3.12583 4.34675 3.21424 4.25313C3.46649 3.98918 3.73045 3.73433 3.9879 3.47558C4.38057 3.0829 4.38317 3.0816 4.08412 2.60051C3.9827 2.43668 3.89688 2.22994 3.74475 2.13892C3.14143 1.77485 2.51471 1.44848 1.86198 1.08961L1.86328 1.08831ZM11.5203 14.1299C11.1328 13.745 10.7687 13.3809 10.4294 13.0442C9.90015 13.5721 9.35145 14.1221 8.82484 14.6474C9.37745 15.2052 9.94436 15.7786 10.5269 16.3676C10.757 16.1375 10.9989 15.8982 11.2329 15.6538C11.2654 15.62 11.2875 15.5445 11.2719 15.5042C11.0769 14.9815 11.1861 14.5186 11.519 14.1299H11.5203Z" fill="#898989"/>
<path d="M17.3181 20.502C17.5911 20.502 17.82 20.7282 17.8148 20.9935C17.8096 21.26 17.5742 21.4837 17.3064 21.4772C17.0437 21.4719 16.8318 21.2574 16.8279 20.9935C16.824 20.7178 17.0398 20.5007 17.3181 20.502Z" fill="#898989"/>
</g>
<defs>
<clipPath id="clip0_1358_3799">
<rect width="25" height="25" fill="white"/>
</clipPath>
</defs>
</svg>
