<svg width="40" height="23" viewBox="0 0 40 23" fill="none" xmlns="http://www.w3.org/2000/svg">
<path d="M40 15.2563C39.7956 15.9866 39.5539 16.6968 39.0599 17.2895C38.2275 18.288 37.1818 18.8214 35.9004 18.8605C35.8231 18.8626 35.7458 18.8605 35.601 18.8605C35.8025 19.4301 35.9845 19.9615 36.1791 20.4869C36.3797 21.0273 36.3904 21.5527 36.1009 22.064C35.783 22.6265 35.3134 22.9349 34.6747 22.96C34.6228 22.962 34.57 22.958 34.5182 22.9651C33.3316 23.1368 32.4806 22.6727 31.832 21.629C31.2813 20.742 30.6122 19.9314 29.9764 19.1006C29.8825 18.9781 29.6868 18.8706 29.5381 18.8696C23.1847 18.8585 16.8313 18.8575 10.4778 18.8696C10.3204 18.8696 10.112 18.9901 10.0122 19.1217C9.28346 20.08 8.56449 21.0464 7.86605 22.0288C7.40825 22.6717 6.83894 23.0304 6.04464 22.9661C5.6827 22.9369 5.30414 22.9922 4.95785 22.9048C3.96693 22.6557 3.45925 21.614 3.79575 20.5733C3.97476 20.0188 4.18703 19.4763 4.39343 18.8997C4.0491 18.8585 3.73216 18.8314 3.41816 18.7832C1.57034 18.4979 0.0208647 16.6857 0.00814805 14.7691C-0.00554678 12.6425 0.00130064 10.5169 0.00521345 8.39034C0.00716985 7.16782 0.846468 6.30192 2.0389 6.2748C2.25899 6.26977 2.47909 6.2748 2.74222 6.2748C2.74907 6.11206 2.75885 5.97243 2.76179 5.8318C2.78037 4.84334 2.76961 3.85388 2.82244 2.86743C2.89971 1.42292 4.22127 0.0989462 5.64259 0.024611C6.37038 -0.0135612 7.10012 0.00251132 7.82888 0.0085385C8.20646 0.0115521 8.43536 0.238576 8.44514 0.582125C8.4559 0.94476 8.22211 1.20092 7.83377 1.20895C7.24782 1.22201 6.66188 1.20895 6.07594 1.21397C4.8033 1.22302 3.98356 2.0628 3.97476 3.37371C3.96791 4.28281 3.97476 5.19191 3.97672 6.10202C3.97672 6.14119 3.98845 6.17937 4.00411 6.27379C4.278 6.27379 4.55972 6.27379 4.84047 6.27379C6.06518 6.2768 6.80568 6.90162 7.06099 8.19043C7.20185 8.19043 7.35347 8.19043 7.50411 8.19043C10.4857 8.19043 13.4672 8.20249 16.4488 8.18441C17.4749 8.17838 18.4042 8.41143 19.2073 9.08949C19.2435 9.11962 19.2915 9.13469 19.3707 9.17688C19.3805 9.02419 19.3942 8.91068 19.3942 8.79616C19.3951 7.01714 19.3629 5.23812 19.4049 3.46111C19.4392 2.03568 18.3993 1.18183 17.1795 1.20192C14.9541 1.24009 12.7267 1.21297 10.5003 1.21197C10.3702 1.21197 10.2353 1.22703 10.111 1.1969C9.79311 1.12055 9.60431 0.900561 9.62877 0.565048C9.65127 0.257662 9.8293 0.0497242 10.1502 0.0125566C10.1893 0.00753397 10.2284 0.00652944 10.2675 0.00652944C12.7414 0.0085385 15.2153 -0.00452039 17.6882 0.0226019C18.4727 0.0316427 19.1359 0.409346 19.6866 0.982932C19.7854 1.0864 19.8794 1.19589 20.0359 1.37068C20.1014 1.26822 20.1464 1.17178 20.2139 1.09544C20.8331 0.400305 21.5932 0.0115521 22.5176 0.0105476C26.358 0.00652944 30.1994 -0.00753397 34.0398 0.0125566C35.9238 0.0226019 37.2141 1.43798 37.2395 3.45408C37.2513 4.37523 37.2415 5.29638 37.2415 6.27379C37.4576 6.27379 37.6474 6.27379 37.8382 6.27379C38.9113 6.27881 39.5618 6.74994 39.9296 7.78661C39.9413 7.81976 39.9765 7.84487 40 7.87401V15.2553V15.2563ZM20.6541 12.9328H21.1823C23.395 12.9328 25.6077 12.9238 27.8204 12.9469C28.0434 12.9489 28.3261 13.0986 28.4641 13.2754C28.5599 13.3979 28.5335 13.7585 28.423 13.8811C28.2802 14.0388 27.9994 14.1373 27.7783 14.1373C20.7363 14.1503 13.6952 14.1483 6.65308 14.1463C6.04659 14.1463 5.86465 13.9524 5.86367 13.3316C5.86269 11.7545 5.86367 10.1764 5.86367 8.59928C5.86367 7.81072 5.57021 7.49831 4.81406 7.49329C3.95519 7.48726 3.09633 7.48827 2.23649 7.49329C1.47839 7.49731 1.1771 7.81072 1.17612 8.59024C1.17417 10.529 1.16927 12.4677 1.18101 14.4055C1.18297 14.7349 1.22405 15.0745 1.31014 15.3919C1.70826 16.8475 2.80874 17.636 4.42375 17.636C14.8113 17.638 25.1978 17.638 35.5854 17.632C35.9199 17.632 36.2672 17.6099 36.587 17.5195C38.0142 17.1167 38.8222 15.9816 38.8271 14.3994C38.833 12.4607 38.8301 10.5219 38.8271 8.58421C38.8271 7.80871 38.5219 7.49731 37.7609 7.49329C36.9412 7.48827 36.1204 7.49128 35.3007 7.49329C34.4105 7.49429 34.1406 7.77255 34.1406 8.68768C34.1406 10.2648 34.1425 11.8429 34.1396 13.42C34.1386 13.9152 33.9361 14.1322 33.4617 14.1453C33.0587 14.1563 32.6547 14.1493 32.2517 14.1483C31.6139 14.1483 30.9761 14.1553 30.3383 14.1393C29.9646 14.1302 29.7308 13.8851 29.7279 13.5486C29.725 13.2241 29.9744 12.965 30.3285 12.9358C30.4704 12.9238 30.6151 12.9318 30.7579 12.9318C31.4828 12.9318 32.2076 12.9318 32.9423 12.9318V9.425C32.8806 9.41295 32.8435 9.39989 32.8063 9.39989C29.6174 9.39888 26.4284 9.38884 23.2395 9.40993C22.8502 9.41295 22.4325 9.52244 22.0784 9.69321C20.929 10.2497 20.4271 11.417 20.6531 12.9308L20.6541 12.9328ZM32.9403 8.19043C33.2025 6.89359 33.9391 6.2758 35.1882 6.27379C35.4572 6.27379 35.7272 6.27379 36.0295 6.27379C36.0295 5.28132 36.0021 4.33505 36.0363 3.38979C36.0813 2.13915 35.1325 1.20092 33.9058 1.20694C30.1847 1.22302 26.4627 1.21096 22.7416 1.21397C21.4396 1.21498 20.6179 2.04773 20.611 3.38175C20.6022 5.19894 20.6081 7.01714 20.6101 8.83434C20.6101 8.94182 20.6296 9.04931 20.6463 9.2251C21.5951 8.34915 22.6653 8.16231 23.8205 8.18139C25.7202 8.21253 27.6199 8.18943 29.5195 8.18943H32.9403V8.19043ZM19.4196 12.9188C19.3883 12.4145 19.4225 11.9363 19.3198 11.4923C19.0156 10.1744 18.0022 9.40089 16.6376 9.39888C13.5563 9.39386 10.4739 9.39687 7.3926 9.39888C7.28108 9.39888 7.16859 9.41395 7.06588 9.42199V12.9198H19.4196V12.9188ZM8.69654 18.8616C7.69878 18.8616 6.79003 18.8565 5.88128 18.8696C5.79324 18.8706 5.65922 18.959 5.62792 19.0404C5.3775 19.6973 5.12904 20.3563 4.91677 21.0273C4.78373 21.4462 5.00285 21.7285 5.44011 21.7536C5.71302 21.7697 5.99181 21.7888 6.25788 21.7456C6.43494 21.7164 6.64916 21.624 6.75579 21.4854C7.39847 20.6486 8.01474 19.7897 8.69654 18.8626V18.8616ZM31.3048 18.8616C31.9944 19.7978 32.6185 20.6667 33.2709 21.5115C33.3746 21.6461 33.5996 21.7164 33.7796 21.7466C34.0202 21.7857 34.2726 21.7646 34.5201 21.7546C35.0121 21.7345 35.2313 21.4321 35.0718 20.95C34.8635 20.3201 34.6297 19.6973 34.3881 19.0795C34.3509 18.9851 34.2149 18.8716 34.123 18.8706C33.2142 18.8555 32.3045 18.8616 31.3038 18.8616H31.3048Z" fill="#898989"/>
</svg>
