<svg width="30" height="30" viewBox="0 0 30 30" fill="none" xmlns="http://www.w3.org/2000/svg">
<g clip-path="url(#clip0_1358_606)">
<path d="M13.4176 -0.000387567C13.4826 0.0348375 13.546 0.0739764 13.6141 0.103722C14.1996 0.363605 14.519 0.820747 14.5213 1.45167C14.5331 4.02936 14.5268 6.60627 14.5237 9.18396C14.5237 9.3366 14.4908 9.48846 14.4705 9.67006C14.6685 9.67006 14.8524 9.66615 15.0364 9.67006C15.7886 9.69041 16.4086 10.2877 16.4579 11.0391C16.4626 11.1072 16.4611 11.1761 16.4611 11.2442C16.4611 16.975 16.4611 22.7065 16.4611 28.4372C16.4611 29.2137 16.0509 29.7742 15.3472 29.9566C15.2266 29.9879 15.0975 29.9965 14.9714 29.9965C10.4704 29.998 5.96947 29.9988 1.46849 29.9973C0.630137 29.9973 0.000782779 29.3734 0.000782779 28.5421C0 22.744 0 16.9444 0 11.1448C0 10.4489 0.410959 9.91272 1.08023 9.72329C1.14521 9.7045 1.20939 9.68415 1.2955 9.65754C1.21487 9.45401 1.12955 9.2638 1.0638 9.06576C0.857926 8.44736 1.00744 7.82818 1.08102 7.21214C1.26262 5.70294 1.45597 4.19531 1.64462 2.68689C1.72211 2.06771 1.79648 1.44854 1.88102 0.830924C1.93973 0.41292 2.22701 0.177303 2.57769 -0.000387567H4.15969C4.56908 0.16243 4.84384 0.438751 4.90489 0.891198C4.93229 1.09394 4.95186 1.29746 4.97691 1.5002C5.14364 2.83327 5.31037 4.16713 5.47789 5.5002C5.58356 6.3409 5.69706 7.18083 5.79178 8.02231C5.85597 8.59139 5.75577 9.13856 5.4544 9.65597H6.81487C6.79609 9.45949 6.76399 9.27632 6.76321 9.09237C6.76008 6.57495 6.75695 4.05754 6.76321 1.54012C6.76477 0.776129 7.12016 0.303331 7.83875 0.0473619C7.86458 0.0379686 7.88571 0.015268 7.9092 -0.00195312C9.74481 -0.00195312 11.5812 -0.00195312 13.4168 -0.00195312L13.4176 -0.000387567ZM15.4521 27.0665V16.4787H0.999609V27.0665H15.4521ZM15.4732 15.4634V15.1746C15.4732 13.8759 15.4732 12.5781 15.4732 11.2795C15.4732 10.802 15.326 10.6571 14.8431 10.6571C10.4305 10.6571 6.01879 10.6571 1.60626 10.6571C1.12172 10.6571 0.983953 10.7949 0.983953 11.2849C0.982387 12.5836 0.983953 13.8814 0.983953 15.18C0.983953 15.2724 0.983953 15.3648 0.983953 15.4634H15.474H15.4732ZM13.5382 5.33034C13.5382 4.08102 13.5382 2.83171 13.5382 1.58239C13.5382 1.13934 13.3855 0.985131 12.9432 0.984348C11.4106 0.982783 9.87867 0.982783 8.34599 0.984348C7.90841 0.984348 7.74325 1.14482 7.74325 1.58239C7.7409 4.07163 7.7409 6.56008 7.74325 9.04932C7.74325 9.5002 7.91546 9.66928 8.36243 9.66928C9.88493 9.67006 11.4074 9.67006 12.9299 9.66928C13.3793 9.66928 13.5382 9.50646 13.5389 9.04932C13.5397 7.8094 13.5389 6.57026 13.5389 5.33034H13.5382ZM4.26771 3.76086C3.83875 3.81722 3.4411 3.85245 3.05049 3.92447C2.5636 4.01449 2.45323 4.16948 2.39374 4.66184C2.27162 5.67789 2.15186 6.69394 2.00078 7.70607C1.89824 8.3957 1.91859 9.03445 2.48767 9.53073C2.57299 9.60509 2.7045 9.65832 2.81644 9.66302C3.19687 9.67946 3.57808 9.67946 3.95851 9.66302C4.07045 9.65832 4.20117 9.60118 4.28571 9.52603C4.68337 9.17456 4.8681 8.72995 4.81331 8.19452C4.79295 7.991 4.7726 7.78748 4.74755 7.58396C4.58787 6.30881 4.4274 5.03288 4.26771 3.76086ZM15.4716 28.0826H1.009C0.918982 28.773 1.00274 29.0266 1.77847 29.0235C6.08376 29.0063 10.3898 29.0157 14.6951 29.0157C14.8023 29.0157 14.9104 29.0196 15.0168 29.0125C15.2822 28.9945 15.4505 28.8325 15.4677 28.5695C15.4779 28.4153 15.4693 28.2595 15.4693 28.0834L15.4716 28.0826ZM3.91937 0.984348C3.59374 0.984348 3.30254 0.97652 3.01213 0.99061C2.95029 0.993742 2.84618 1.07202 2.83914 1.12681C2.75382 1.73895 2.68337 2.35343 2.60509 2.99687C3.05127 2.93112 3.46145 2.87554 3.86849 2.80744C4.05636 2.77535 4.1409 2.66654 4.10881 2.45597C4.03601 1.97769 3.98356 1.49629 3.91937 0.984348Z" fill="#898989"/>
<path d="M30 12.8321C29.7691 13.3785 29.3573 13.5601 28.7702 13.5569C25.3737 13.5389 21.9781 13.5483 18.5816 13.5483C17.7628 13.5483 17.4074 13.193 17.4074 12.3734C17.4074 8.67476 17.4152 4.97613 17.3996 1.2775C17.3964 0.691976 17.5616 0.255969 18.1056 0H29.297C29.6219 0.144031 29.8559 0.378865 30 0.702935V12.8321ZM18.4156 2.92916V12.5558H23.2117C23.2117 12.2223 23.2117 11.9108 23.2117 11.6C23.2117 11.2892 23.2117 10.9832 23.2117 10.6575C23.0246 10.6575 22.879 10.6614 22.7342 10.6575C21.9358 10.6325 21.2986 10.0227 21.2829 9.22505C21.2634 8.23953 21.2657 7.25323 21.2829 6.26771C21.2955 5.51859 21.834 4.9456 22.5831 4.84853C22.7828 4.8227 22.9855 4.82348 23.1906 4.81174V2.93072H18.4164L18.4156 2.92916ZM24.2121 4.8274C24.3694 4.8274 24.5135 4.82192 24.6567 4.82818C25.5397 4.86497 26.1299 5.47241 26.1315 6.34912C26.1338 7.30568 26.1362 8.26223 26.1299 9.21879C26.126 9.89198 25.6657 10.4642 25.0066 10.6043C24.753 10.6575 24.4892 10.6583 24.2137 10.6849V12.5605H28.9941V2.93933H24.2121V4.8274ZM29.0027 1.00822H18.418V1.91233H29.0027V1.00822ZM24.2137 9.66967C24.3757 9.66967 24.5205 9.67515 24.6646 9.6681C24.9597 9.65401 25.1405 9.48337 25.142 9.18904C25.1483 8.22309 25.1483 7.25714 25.142 6.29041C25.1405 6.01096 24.9761 5.84344 24.6896 5.81213C24.5377 5.79569 24.3827 5.809 24.2137 5.809V9.66888V9.66967ZM23.1874 9.66888V5.809C23.0184 5.809 22.872 5.79569 22.7287 5.81213C22.4415 5.84423 22.2677 6.02818 22.2661 6.31703C22.2606 7.27123 22.2599 8.22544 22.2661 9.17965C22.2685 9.46928 22.4563 9.65088 22.7405 9.66732C22.8845 9.67593 23.0285 9.66888 23.1867 9.66888H23.1874Z" fill="#898989"/>
<path d="M30 25.8411C29.7847 26.667 29.5694 27.4936 29.3534 28.3194C29.297 28.5355 29.2485 28.7546 29.1827 28.9683C28.9831 29.6094 28.454 30 27.7847 30.0008C25.0716 30.0024 22.3585 30.0024 19.6454 30.0008C18.9487 30.0008 18.4008 29.5977 18.2238 28.9237C17.9554 27.8983 17.6994 26.8697 17.4552 25.838C17.2939 25.157 17.6563 24.5253 18.3029 24.2607C18.4156 24.2145 18.533 24.0916 18.5761 23.9766C18.7663 23.467 18.9268 22.9464 19.1029 22.4314C19.416 21.5147 20.252 21.0881 21.1694 21.384C21.9467 21.6345 22.7209 21.8959 23.4951 22.1558C23.6054 22.1926 23.733 22.2247 23.8105 22.3014C24.0587 22.5496 24.2833 22.5229 24.5964 22.386C25.1788 22.1316 25.7604 22.2317 26.2912 22.5848C27.0223 23.0701 27.7487 23.5617 28.4837 24.0408C28.6082 24.1222 28.76 24.1691 28.9064 24.2067C29.3487 24.3186 29.6798 24.5621 29.8802 24.977C29.9162 25.0521 29.9593 25.1241 29.9992 25.1977V25.8419L30 25.8411ZM23.7072 25.1742C22.1158 25.1742 20.5244 25.1734 18.933 25.1742C18.4524 25.1742 18.3342 25.3253 18.4477 25.784C18.6716 26.6905 18.8955 27.5977 19.1233 28.5034C19.2313 28.9339 19.3377 29.0153 19.7698 29.0161C22.3961 29.0161 25.0223 29.0161 27.6485 29.0161C28.0736 29.0161 28.1957 28.9182 28.2982 28.5049C28.5182 27.6173 28.7373 26.7296 28.9565 25.8419C29.0888 25.3073 28.9831 25.175 28.4235 25.1742C26.8516 25.1742 25.2798 25.1742 23.708 25.1742H23.7072ZM23.4865 23.2666C23.3784 23.193 23.3221 23.1343 23.2532 23.1116C22.425 22.8321 21.5976 22.5488 20.764 22.2858C20.4931 22.2004 20.2262 22.3108 20.1213 22.5629C19.9045 23.085 19.7401 23.6298 19.5444 24.1957C20.5346 24.1957 21.47 24.1965 22.4047 24.1934C22.4665 24.1934 22.5456 24.173 22.5886 24.1323C22.8853 23.8544 23.1741 23.5695 23.4865 23.2658V23.2666ZM26.8289 24.1848C26.8344 24.1668 26.8399 24.1496 26.8454 24.1316C26.4571 23.8748 26.0869 23.5836 25.6736 23.377C25.463 23.2721 25.1193 23.2173 24.9362 23.319C24.573 23.5218 24.2794 23.849 23.9569 24.1245C23.9757 24.1449 23.9937 24.1652 24.0125 24.1848H26.8289Z" fill="#898989"/>
<path d="M8.23794 26.1323C5.82542 26.1338 3.87082 24.1925 3.86847 21.7941C3.86612 19.3706 5.81681 17.4082 8.22777 17.4082C10.6199 17.4082 12.5902 19.3777 12.5918 21.7691C12.5933 24.1667 10.6332 26.1307 8.23794 26.1323ZM8.20507 25.146C10.0743 25.1515 11.5976 23.6556 11.6031 21.8098C11.6086 19.9287 10.1064 18.4015 8.24655 18.3969C6.36788 18.3922 4.8579 19.8927 4.85477 21.7675C4.85164 23.636 6.34362 25.1405 8.20507 25.146Z" fill="#898989"/>
<path d="M8.69748 14.5162H1.95227V11.627H8.69669V14.5162H8.69748ZM2.93074 13.5181H7.71352V12.614H2.93074V13.5181Z" fill="#898989"/>
<path d="M9.68689 13.5241V12.5918H10.6395V13.5241H9.68689Z" fill="#898989"/>
<path d="M12.5722 13.5331H11.6235V12.5938H12.5722V13.5331Z" fill="#898989"/>
<path d="M13.5593 12.5879H14.5065V13.5327H13.5593V12.5879Z" fill="#898989"/>
<path d="M8.70996 5.1937C8.7444 4.49703 8.96906 3.87863 9.48021 3.38783C10.1479 2.74673 11.0888 2.73577 11.773 3.35339C12.8548 4.33108 12.8579 6.30759 11.78 7.28841C11.0544 7.9483 10.0242 7.88411 9.36045 7.13734C8.90565 6.62618 8.66221 5.89898 8.70996 5.1937ZM11.6039 5.45123C11.6031 4.87667 11.4583 4.45084 11.218 4.17374C10.8884 3.79487 10.4462 3.78391 10.101 4.14477C9.55536 4.71464 9.55066 5.91307 10.0908 6.49076C10.425 6.84928 10.8563 6.85476 11.1882 6.49703C11.4974 6.16434 11.5945 5.7526 11.6039 5.45045V5.45123Z" fill="#898989"/>
<path d="M8.20744 24.1978C6.87985 24.1931 5.79961 23.0988 5.80274 21.7618C5.80587 20.435 6.90568 19.3398 8.23092 19.3438C9.55147 19.3469 10.6552 20.4522 10.6568 21.7719C10.6591 23.1105 9.55538 24.2033 8.20665 24.1978H8.20744ZM8.20822 23.2107C9.01761 23.2162 9.66889 22.5774 9.66967 21.7774C9.67045 20.9892 9.02936 20.3387 8.24501 20.3316C7.44971 20.3246 6.79922 20.9555 6.79061 21.7414C6.782 22.5625 7.40196 23.206 8.20822 23.2115V23.2107Z" fill="#898989"/>
</g>
<defs>
<clipPath id="clip0_1358_606">
<rect width="30" height="30" fill="white"/>
</clipPath>
</defs>
</svg>
